<?xml version="1.0" encoding="UTF-8" standalone="no"?>
<!-- Created with Inkscape (http://www.inkscape.org/) -->

<svg
   xmlns:dc="http://purl.org/dc/elements/1.1/"
   xmlns:cc="http://creativecommons.org/ns#"
   xmlns:rdf="http://www.w3.org/1999/02/22-rdf-syntax-ns#"
   xmlns:svg="http://www.w3.org/2000/svg"
   xmlns="http://www.w3.org/2000/svg"
   xmlns:xlink="http://www.w3.org/1999/xlink"
   xmlns:sodipodi="http://sodipodi.sourceforge.net/DTD/sodipodi-0.dtd"
   xmlns:inkscape="http://www.inkscape.org/namespaces/inkscape"
   width="32"
   height="32"
   id="svg3123"
   version="1.1"
   inkscape:version="0.48.2 r9819"
   sodipodi:docname="msile-32px.svg"
   inkscape:export-xdpi="1440"
   inkscape:export-ydpi="1440">
  <title
     id="title3947">msile 16px icon</title>
  <defs
     id="defs3125">
    <linearGradient
       id="linearGradient4254">
      <stop
         id="stop4256"
         offset="0"
         style="stop-color:#ffffff;stop-opacity:0.50196081;" />
      <stop
         id="stop4258"
         offset="1"
         style="stop-color:#ffffff;stop-opacity:0.1882353;" />
    </linearGradient>
    <linearGradient
       id="linearGradient4234">
      <stop
         id="stop4236"
         offset="0"
         style="stop-color:#ffffff;stop-opacity:0.3764706;" />
      <stop
         style="stop-color:#ffffff;stop-opacity:0.3137255;"
         offset="0.79999995"
         id="stop4244" />
      <stop
         id="stop4238"
         offset="1"
         style="stop-color:#ffffff;stop-opacity:0.56470591;" />
    </linearGradient>
    <linearGradient
       id="linearGradient4220">
      <stop
         id="stop4222"
         offset="0"
         style="stop-color:#ffffff;stop-opacity:0.50196081;" />
      <stop
         id="stop4224"
         offset="1"
         style="stop-color:#ffffff;stop-opacity:0.25098041;" />
    </linearGradient>
    <linearGradient
       id="linearGradient4286">
      <stop
         style="stop-color:#606060;stop-opacity:1;"
         offset="0"
         id="stop4288" />
      <stop
         id="stop4294"
         offset="0.5"
         style="stop-color:#c0c0c0;stop-opacity:1;" />
      <stop
         style="stop-color:#606060;stop-opacity:1;"
         offset="1"
         id="stop4290" />
    </linearGradient>
    <linearGradient
       id="linearGradient3977">
      <stop
         style="stop-color:#ff6666;stop-opacity:1;"
         offset="0"
         id="stop3979" />
      <stop
         id="stop3987"
         offset="0.5"
         style="stop-color:#eb0000;stop-opacity:1;" />
      <stop
         style="stop-color:#a20000;stop-opacity:1;"
         offset="1"
         id="stop3981" />
    </linearGradient>
    <linearGradient
       id="linearGradient3969">
      <stop
         style="stop-color:#000000;stop-opacity:1;"
         offset="0"
         id="stop3971" />
      <stop
         style="stop-color:#000544;stop-opacity:1;"
         offset="1"
         id="stop3973" />
    </linearGradient>
    <radialGradient
       inkscape:collect="always"
       xlink:href="#linearGradient3977"
       id="radialGradient3983"
       cx="8"
       cy="2.6010206"
       fx="8"
       fy="2.6010206"
       r="2"
       gradientTransform="matrix(2,0,0,4.0000003,0,-22.404083)"
       gradientUnits="userSpaceOnUse" />
    <linearGradient
       inkscape:collect="always"
       xlink:href="#linearGradient3977"
       id="linearGradient3999"
       x1="-1"
       y1="12"
       x2="-2"
       y2="14"
       gradientUnits="userSpaceOnUse" />
    <linearGradient
       inkscape:collect="always"
       xlink:href="#linearGradient3977"
       id="linearGradient4009"
       x1="-1"
       y1="12"
       x2="-2"
       y2="14"
       gradientUnits="userSpaceOnUse"
       gradientTransform="matrix(2,0,0,2,10,-18.000001)" />
    <linearGradient
       inkscape:collect="always"
       xlink:href="#linearGradient3969"
       id="linearGradient4039"
       gradientUnits="userSpaceOnUse"
       x1="8"
       y1="16"
       x2="8"
       y2="0" />
    <linearGradient
       gradientTransform="matrix(-2,0,0,2,22,-18.000001)"
       inkscape:collect="always"
       xlink:href="#linearGradient3977-0"
       id="linearGradient4009-6"
       x1="-1"
       y1="12"
       x2="-2"
       y2="14"
       gradientUnits="userSpaceOnUse" />
    <linearGradient
       id="linearGradient3977-0">
      <stop
         style="stop-color:#ff6666;stop-opacity:1;"
         offset="0"
         id="stop3979-3" />
      <stop
         id="stop3987-6"
         offset="0.5"
         style="stop-color:#eb0000;stop-opacity:1;" />
      <stop
         style="stop-color:#a20000;stop-opacity:1;"
         offset="1"
         id="stop3981-2" />
    </linearGradient>
    <linearGradient
       inkscape:collect="always"
       xlink:href="#linearGradient3969-5"
       id="linearGradient4065-4"
       gradientUnits="userSpaceOnUse"
       gradientTransform="translate(0,-1)"
       x1="8"
       y1="16"
       x2="8"
       y2="0" />
    <linearGradient
       id="linearGradient3969-5">
      <stop
         style="stop-color:#000000;stop-opacity:1;"
         offset="0"
         id="stop3971-8" />
      <stop
         style="stop-color:#000544;stop-opacity:1;"
         offset="1"
         id="stop3973-8" />
    </linearGradient>
    <linearGradient
       inkscape:collect="always"
       xlink:href="#linearGradient3969"
       id="linearGradient4129"
       gradientUnits="userSpaceOnUse"
       gradientTransform="matrix(2,0,0,2,0,-18.000001)"
       x1="8"
       y1="16"
       x2="8"
       y2="0" />
    <linearGradient
       inkscape:collect="always"
       xlink:href="#linearGradient3969-4"
       id="linearGradient4129-1"
       gradientUnits="userSpaceOnUse"
       gradientTransform="translate(0,-1)"
       x1="8"
       y1="16"
       x2="8"
       y2="0" />
    <linearGradient
       id="linearGradient3969-4">
      <stop
         style="stop-color:#000000;stop-opacity:1;"
         offset="0"
         id="stop3971-9" />
      <stop
         style="stop-color:#000544;stop-opacity:1;"
         offset="1"
         id="stop3973-82" />
    </linearGradient>
    <linearGradient
       inkscape:collect="always"
       xlink:href="#linearGradient3969-9"
       id="linearGradient4129-2"
       gradientUnits="userSpaceOnUse"
       gradientTransform="translate(0,-1)"
       x1="8"
       y1="16"
       x2="8"
       y2="0" />
    <linearGradient
       id="linearGradient3969-9">
      <stop
         style="stop-color:#000000;stop-opacity:1;"
         offset="0"
         id="stop3971-98" />
      <stop
         style="stop-color:#000544;stop-opacity:1;"
         offset="1"
         id="stop3973-3" />
    </linearGradient>
    <linearGradient
       y2="0"
       x2="8"
       y1="16"
       x1="8"
       gradientTransform="translate(0,-1)"
       gradientUnits="userSpaceOnUse"
       id="linearGradient4208"
       xlink:href="#linearGradient3969-9"
       inkscape:collect="always" />
    <linearGradient
       inkscape:collect="always"
       xlink:href="#linearGradient3969-8"
       id="linearGradient4129-9"
       gradientUnits="userSpaceOnUse"
       gradientTransform="translate(0,-1)"
       x1="8"
       y1="16"
       x2="8"
       y2="0" />
    <linearGradient
       id="linearGradient3969-8">
      <stop
         style="stop-color:#000000;stop-opacity:1;"
         offset="0"
         id="stop3971-6" />
      <stop
         style="stop-color:#000544;stop-opacity:1;"
         offset="1"
         id="stop3973-6" />
    </linearGradient>
    <linearGradient
       y2="0"
       x2="8"
       y1="16"
       x1="8"
       gradientTransform="translate(0,-1)"
       gradientUnits="userSpaceOnUse"
       id="linearGradient4265"
       xlink:href="#linearGradient3969-8"
       inkscape:collect="always" />
    <linearGradient
       inkscape:collect="always"
       xlink:href="#linearGradient4286"
       id="linearGradient4292"
       x1="6"
       y1="10.84375"
       x2="10"
       y2="10.84375"
       gradientUnits="userSpaceOnUse"
       gradientTransform="matrix(2,0,0,2,0,-16)" />
    <linearGradient
       inkscape:collect="always"
       xlink:href="#linearGradient4286-8"
       id="linearGradient4292-3"
       x1="6"
       y1="10.84375"
       x2="10"
       y2="10.84375"
       gradientUnits="userSpaceOnUse" />
    <linearGradient
       id="linearGradient4286-8">
      <stop
         style="stop-color:#808080;stop-opacity:1;"
         offset="0"
         id="stop4288-2" />
      <stop
         id="stop4294-6"
         offset="0.5"
         style="stop-color:#d0d0d0;stop-opacity:1;" />
      <stop
         style="stop-color:#808080;stop-opacity:1;"
         offset="1"
         id="stop4290-2" />
    </linearGradient>
    <linearGradient
       inkscape:collect="always"
       xlink:href="#linearGradient4286-7"
       id="linearGradient4292-5"
       x1="6"
       y1="10.84375"
       x2="10"
       y2="10.84375"
       gradientUnits="userSpaceOnUse" />
    <linearGradient
       id="linearGradient4286-7">
      <stop
         style="stop-color:#606060;stop-opacity:1;"
         offset="0"
         id="stop4288-8" />
      <stop
         id="stop4294-2"
         offset="0.5"
         style="stop-color:#c0c0c0;stop-opacity:1;" />
      <stop
         style="stop-color:#606060;stop-opacity:1;"
         offset="1"
         id="stop4290-7" />
    </linearGradient>
    <linearGradient
       gradientTransform="translate(-8,-5)"
       y2="10.84375"
       x2="10"
       y1="10.84375"
       x1="6"
       gradientUnits="userSpaceOnUse"
       id="linearGradient4312"
       xlink:href="#linearGradient4286-7"
       inkscape:collect="always" />
    <linearGradient
       inkscape:collect="always"
       xlink:href="#linearGradient4286-7"
       id="linearGradient4354"
       gradientUnits="userSpaceOnUse"
       gradientTransform="translate(-8,-5)"
       x1="6"
       y1="10.84375"
       x2="10"
       y2="10.84375" />
    <radialGradient
       inkscape:collect="always"
       xlink:href="#linearGradient3977-2"
       id="radialGradient3983-0"
       cx="8"
       cy="2.6010206"
       fx="8"
       fy="2.6010206"
       r="2"
       gradientTransform="matrix(1,0,0,2.0000001,0,-3.2020412)"
       gradientUnits="userSpaceOnUse" />
    <linearGradient
       id="linearGradient3977-2">
      <stop
         style="stop-color:#ff6666;stop-opacity:1;"
         offset="0"
         id="stop3979-0" />
      <stop
         id="stop3987-8"
         offset="0.5"
         style="stop-color:#eb0000;stop-opacity:1;" />
      <stop
         style="stop-color:#a20000;stop-opacity:1;"
         offset="1"
         id="stop3981-9" />
    </linearGradient>
    <radialGradient
       r="2"
       fy="2.6010206"
       fx="8"
       cy="2.6010206"
       cx="8"
       gradientTransform="matrix(1,0,0,2.0000001,-6,-5.2020412)"
       gradientUnits="userSpaceOnUse"
       id="radialGradient4379"
       xlink:href="#linearGradient3977-2"
       inkscape:collect="always" />
    <radialGradient
       inkscape:collect="always"
       xlink:href="#linearGradient3977-20"
       id="radialGradient3983-8"
       cx="8"
       cy="2.6010206"
       fx="8"
       fy="2.6010206"
       r="2"
       gradientTransform="matrix(1,0,0,2.0000001,0,-3.2020412)"
       gradientUnits="userSpaceOnUse" />
    <linearGradient
       id="linearGradient3977-20">
      <stop
         style="stop-color:#ff6666;stop-opacity:1;"
         offset="0"
         id="stop3979-5" />
      <stop
         id="stop3987-5"
         offset="0.5"
         style="stop-color:#eb0000;stop-opacity:1;" />
      <stop
         style="stop-color:#a20000;stop-opacity:1;"
         offset="1"
         id="stop3981-27" />
    </linearGradient>
    <radialGradient
       r="2"
       fy="2.6010206"
       fx="8"
       cy="2.6010206"
       cx="8"
       gradientTransform="matrix(1,0,0,2.0000001,-6,-6.2020412)"
       gradientUnits="userSpaceOnUse"
       id="radialGradient4379-6"
       xlink:href="#linearGradient3977-20"
       inkscape:collect="always" />
    <radialGradient
       inkscape:collect="always"
       xlink:href="#linearGradient3977-0"
       id="radialGradient4035"
       cx="16"
       cy="3.6666667"
       fx="16"
       fy="3.6666667"
       r="5"
       gradientTransform="matrix(1,0,0,2,0,-4.3333335)"
       gradientUnits="userSpaceOnUse" />
    <linearGradient
       inkscape:collect="always"
       xlink:href="#linearGradient3969"
       id="linearGradient4043"
       x1="25"
       y1="33"
       x2="25.102291"
       y2="33.149048"
       gradientUnits="userSpaceOnUse" />
    <radialGradient
       inkscape:collect="always"
       xlink:href="#linearGradient3977-0"
       id="radialGradient4051"
       cx="24"
       cy="22.889093"
       fx="24"
       fy="22.889093"
       r="3.5"
       gradientTransform="matrix(2.2857142,-6.404007e-8,6.4040081e-8,2.2857143,-29.857141,-30.317926)"
       gradientUnits="userSpaceOnUse" />
    <radialGradient
       inkscape:collect="always"
       xlink:href="#linearGradient3977-0"
       id="radialGradient4059"
       cx="7"
       cy="22.594568"
       fx="7"
       fy="22.594568"
       r="3.5"
       gradientTransform="matrix(2.2857143,-4.7104675e-7,4.7104681e-7,2.2857146,-9.0000106,-29.644729)"
       gradientUnits="userSpaceOnUse" />
    <linearGradient
       inkscape:collect="always"
       xlink:href="#linearGradient4286-8"
       id="linearGradient4067"
       x1="11"
       y1="22"
       x2="21"
       y2="22"
       gradientUnits="userSpaceOnUse" />
    <linearGradient
       inkscape:collect="always"
       xlink:href="#linearGradient4220"
       id="linearGradient4218"
       x1="16"
       y1="13"
       x2="16"
       y2="1"
       gradientUnits="userSpaceOnUse" />
    <radialGradient
       inkscape:collect="always"
       xlink:href="#linearGradient4234"
       id="radialGradient4242"
       cx="16"
       cy="21.4363"
       fx="16"
       fy="21.4363"
       r="5"
       gradientTransform="matrix(1,0,-4.1751335e-8,1.6000002,6.8623748e-7,-13.298083)"
       gradientUnits="userSpaceOnUse" />
    <linearGradient
       inkscape:collect="always"
       xlink:href="#linearGradient4254"
       id="linearGradient4252"
       x1="25"
       y1="29"
       x2="25"
       y2="19"
       gradientUnits="userSpaceOnUse" />
    <linearGradient
       inkscape:collect="always"
       xlink:href="#linearGradient4254-8"
       id="linearGradient4252-3"
       x1="25"
       y1="29"
       x2="25"
       y2="19"
       gradientUnits="userSpaceOnUse" />
    <linearGradient
       id="linearGradient4254-8">
      <stop
         id="stop4256-6"
         offset="0"
         style="stop-color:#ffffff;stop-opacity:0.50196081;" />
      <stop
         id="stop4258-9"
         offset="1"
         style="stop-color:#ffffff;stop-opacity:0.1882353;" />
    </linearGradient>
    <linearGradient
       gradientTransform="matrix(-1,0,0,1,32,0)"
       y2="19"
       x2="25"
       y1="29"
       x1="25"
       gradientUnits="userSpaceOnUse"
       id="linearGradient4275"
       xlink:href="#linearGradient4254-8"
       inkscape:collect="always" />
    <filter
       inkscape:collect="always"
       id="filter4340"
       x="-0.067534092"
       width="1.1350682"
       y="-0.67534092"
       height="2.3506818">
      <feGaussianBlur
         inkscape:collect="always"
         stdDeviation="0.84417615"
         id="feGaussianBlur4342" />
    </filter>
  </defs>
  <sodipodi:namedview
     id="base"
     pagecolor="#ffffff"
     bordercolor="#666666"
     borderopacity="1.0"
     inkscape:pageopacity="0.0"
     inkscape:pageshadow="2"
     inkscape:zoom="16"
     inkscape:cx="15.942067"
     inkscape:cy="13.564775"
     inkscape:current-layer="layer2"
     showgrid="true"
     inkscape:grid-bbox="true"
     inkscape:document-units="px"
     width="0px"
     height="0px"
     fit-margin-top="0"
     fit-margin-left="0"
     fit-margin-right="0"
     fit-margin-bottom="0"
     guidetolerance="10000"
     inkscape:snap-path-clip="true"
     inkscape:snap-path-mask="true"
     objecttolerance="10000"
     inkscape:window-width="1024"
     inkscape:window-height="682"
     inkscape:window-x="-4"
     inkscape:window-y="-4"
     inkscape:window-maximized="1"
     showguides="true"
     inkscape:guide-bbox="true">
    <inkscape:grid
       type="xygrid"
       id="grid3131"
       empspacing="5"
       visible="true"
       enabled="true"
       snapvisiblegridlinesonly="true" />
  </sodipodi:namedview>
  <metadata
     id="metadata3128">
    <rdf:RDF>
      <cc:Work
         rdf:about="">
        <dc:format>image/svg+xml</dc:format>
        <dc:type
           rdf:resource="http://purl.org/dc/dcmitype/StillImage" />
        <dc:title>msile 16px icon</dc:title>
      </cc:Work>
    </rdf:RDF>
  </metadata>
  <g
     id="layer1"
     inkscape:label="Layer 1"
     inkscape:groupmode="layer"
     transform="translate(0,16)"
     sodipodi:insensitive="true"
     style="opacity:0.25;display:none">
    <path
       style="fill:url(#linearGradient4009);fill-opacity:1;stroke:none"
       d="M 10,4.8749998 4,10.875 4,12 l 6,0 0,-2.0000001 z"
       id="path3805-0"
       inkscape:connector-curvature="0"
       sodipodi:nodetypes="cccccc" />
    <path
       style="color:#000000;fill:#ffffff;fill-opacity:0.31460673;fill-rule:nonzero;stroke:none;stroke-width:1px;marker:none;visibility:visible;display:inline;overflow:visible;enable-background:accumulate"
       d="m 10,4.8749998 -2,2 0,3.1250001 -3.125,0 L 4,10.875 4,12 4.875,12 8,12 l 2,0 0,-7.1250002 z"
       id="rect4132"
       inkscape:connector-curvature="0" />
    <path
       style="fill:url(#linearGradient4129);fill-opacity:1;stroke:none"
       d="m 16,-16 c -2,0 -6,6 -6,9.9999997 l 0,2 0,2 0,4.0000001 L 2,9.9999999 2,12 l 0,2 8,0 c 0,0 1.999999,2 6,2 4,0 6,-2 6,-2 l 8,0 0,-2 0,-2.0000001 -8,-8.0000001 0,-6.0000001 0,-2 C 22,-10 18,-16 16,-16 z m 0,2.187499 c 0.122952,2.79e-4 0.251916,0.09349 0.375,0.250001 0.485349,0.462237 1.134376,1.240001 1.6875,2.125 1.106248,1.769996 1.9375,4.1080437 1.9375,5.4374997 0,0.664728 -0.09185,0.9841699 -0.25,1.1875 -0.03851,0.024942 -0.03525,0.01762 -0.125,0.0625 -0.572708,0.2863544 -1.362148,0.5660482 -2.4375,0.6875 -0.397604,0.028112 -0.821917,0.0625 -1.1875,0.0625 -0.365584,0 -0.789897,-0.034387 -1.1875,-0.0625 -1.075352,-0.1214518 -1.864791,-0.4011456 -2.4375,-0.6875 -0.08976,-0.04488 -0.08649,-0.037558 -0.125,-0.0625 -0.158155,-0.2033301 -0.250001,-0.522772 -0.250001,-1.1875 0,-1.329456 0.831253,-3.6675037 1.937501,-5.4374997 0.553124,-0.884999 1.202151,-1.662763 1.6875,-2.125 0.13511,-0.15763 0.252048,-0.250279 0.375,-0.250001 z m -4.000001,11.1875008 c 0.83573,0.3942311 1.749788,0.5087442 2.625001,0.5624999 0.481685,0.029586 0.995434,0.0625 1.375,0.0625 0.379566,0 0.893316,-0.032915 1.375,-0.0625 0.875214,-0.053756 1.789272,-0.1682688 2.625,-0.5624999 L 20,3.9999999 20,13 c -0.1513,0.100238 -0.08328,0.10414 -0.375,0.25 C 18.861388,13.631806 17.669637,14 16,14 14.330363,14 13.138611,13.631806 12.375,13.25 12.083284,13.104142 12.151311,13.100236 11.999999,13 l 0,-9.0000001 0,-6.6250001 z m -1.999999,7.5 0,2 L 10,12 4.875,12 4,12 4,10.875 10,4.8749998 z m 12,0 L 28,10.875 28,12 27.125,12 22,12 22,4.8749998 z"
       id="path4068"
       inkscape:connector-curvature="0" />
    <path
       style="color:#000000;fill:url(#radialGradient3983);fill-opacity:1;fill-rule:nonzero;stroke:none;stroke-width:1px;marker:none;visibility:visible;display:inline;overflow:visible;enable-background:accumulate"
       d="m 15.625,-13.5625 c -0.485349,0.462237 -1.134376,1.240001 -1.6875,2.125 -1.106248,1.769996 -1.937501,4.1080437 -1.937501,5.4374997 0,1.3294561 0.265244,1.331097 1.000001,1.625 0.734758,0.293903 2,0.375 3,0.375 1,0 2.265242,-0.081096 3,-0.375 0.734758,-0.293903 1,-0.2955439 1,-1.625 0,-1.329456 -0.831252,-3.6675037 -1.9375,-5.4374997 -0.553124,-0.884999 -1.202151,-1.662763 -1.6875,-2.125 -0.246168,-0.313029 -0.479779,-0.315258 -0.75,0 z"
       id="path3938-2"
       inkscape:connector-curvature="0"
       sodipodi:nodetypes="cssssssscc" />
    <path
       style="fill:url(#linearGradient4009-6);fill-opacity:1;stroke:none"
       d="M 22,4.8749998 28,10.875 28,12 22,12 22,9.9999999 z"
       id="path3805-0-2"
       inkscape:connector-curvature="0"
       sodipodi:nodetypes="cccccc" />
    <path
       style="color:#000000;fill:#ffffff;fill-opacity:0.31460673;fill-rule:nonzero;stroke:none;stroke-width:1px;marker:none;visibility:visible;display:inline;overflow:visible;enable-background:accumulate"
       d="M 22,4.8749998 22,12 l 2,0 3.125,0 0.875,0 0,-1.125 -0.875,-0.8750001 -3.125,0 0,-3.1250001 -2,-2 z"
       id="rect4132-5"
       inkscape:connector-curvature="0" />
    <path
       style="color:#000000;fill:url(#linearGradient4292);fill-opacity:1;fill-rule:nonzero;stroke:none;stroke-width:1px;marker:none;visibility:visible;display:inline;overflow:visible;enable-background:accumulate"
       d="m 11.999999,-2.6250002 0,6.6250001 0,9.0000001 c 0.151311,0.100238 0.08329,0.10414 0.375001,0.25 C 13.138611,13.631806 14.330363,14 16,14 17.669637,14 18.861388,13.631806 19.625,13.25 19.916716,13.10414 19.84869,13.10024 20,13 l 0,-9.0000001 0,-6.6250001 c -0.835728,0.3942311 -1.749786,0.5087442 -2.625,0.5624999 -0.481684,0.029586 -0.995434,0.0625 -1.375,0.0625 -0.379566,0 -0.893315,-0.032915 -1.375,-0.0625 -0.875213,-0.053756 -1.789271,-0.1682688 -2.625001,-0.5624999 z"
       id="rect4248"
       inkscape:connector-curvature="0" />
    <path
       style="color:#000000;fill:#ffffff;fill-opacity:0.50196078;fill-rule:nonzero;stroke:none;stroke-width:1px;marker:none;visibility:visible;display:inline;overflow:visible;enable-background:accumulate"
       d="m 11.999999,-2.6250002 0,6.6250001 0,9.0000001 c 0.151311,0.100238 0.08329,0.10414 0.375001,0.25 C 13.138611,13.631806 14.330363,14 16,14 17.669637,14 18.861388,13.631806 19.625,13.25 19.916716,13.10414 19.84869,13.10024 20,13 l 0,-9.0000001 0,-6.6250001 c -0.835728,0.3942311 -1.749786,0.5087442 -2.625,0.5624999 -0.481684,0.029586 -0.995434,0.0625 -1.375,0.0625 -0.379566,0 -0.893315,-0.032915 -1.375,-0.0625 -0.875213,-0.053756 -1.789271,-0.1682688 -2.625001,-0.5624999 z M 14,-0.18750023 c 0.152504,0.0128 0.356514,0.11618801 0.5,0.12500001 0.477974,0.02935721 1.005822,0.0624999862731 1.5,0.0624999862731 0.494179,0 1.022026,-0.0331427762731 1.5,-0.0624999862731 0.143486,-0.0088125 0.347495,-0.1121952 0.5,-0.12500001 L 18,3.9999999 18,11.625 C 17.486639,11.804374 17.003311,12 16,12 14.996689,12 14.51336,11.804374 14,11.625 l 0,-7.6250001 0,-4.18750013 z"
       id="rect4248-7"
       inkscape:connector-curvature="0" />
    <path
       style="color:#000000;fill:#ffffff;fill-opacity:0.31460673;fill-rule:nonzero;stroke:none;stroke-width:1px;marker:none;visibility:visible;display:inline;overflow:visible;enable-background:accumulate"
       d="m 12.125,-7.1250003 c -0.08596,0.4073681 -0.125001,0.8099371 -0.125001,1.125 0,1.3294561 0.265244,1.331097 1.000001,1.625 0.734758,0.293903 2,0.375 3,0.375 1,0 2.265242,-0.081096 3,-0.375 0.734758,-0.293903 1,-0.2955439 1,-1.625 0,-0.3150629 -0.03903,-0.7176319 -0.125,-1.125 -0.1305,0.4332826 -0.377772,0.5511088 -0.875,0.75 -0.734758,0.293904 -2,0.375 -3,0.375 -1,0 -2.265242,-0.081097 -3,-0.375 -0.497228,-0.1988912 -0.7445,-0.3167174 -0.875,-0.75 z"
       id="path3938-2-2"
       inkscape:connector-curvature="0" />
  </g>
  <g
     inkscape:groupmode="layer"
     id="layer2"
     inkscape:label="Layer"
     style="display:inline">
    <path
       sodipodi:type="arc"
       style="color:#000000;fill:#000000;fill-opacity:1;fill-rule:evenodd;stroke:#000000;stroke-width:0;stroke-linecap:butt;stroke-linejoin:miter;stroke-miterlimit:4;stroke-opacity:1;stroke-dasharray:none;stroke-dashoffset:0;marker:none;visibility:visible;display:inline;overflow:visible;filter:url(#filter4340);enable-background:accumulate"
       id="path4294"
       sodipodi:cx="17"
       sodipodi:cy="29.5"
       sodipodi:rx="15"
       sodipodi:ry="1.5"
       d="m 32,29.5 a 15,1.5 0 1 1 -30,0 15,1.5 0 1 1 30,0 z"
       transform="matrix(1.0666666,0,0,1.3333337,-2.1333333,-10.333344)" />
    <path
       style="color:#000000;fill:url(#linearGradient4043);fill-opacity:1;fill-rule:nonzero;stroke:none;stroke-width:1px;marker:none;visibility:visible;display:inline;overflow:visible;enable-background:accumulate"
       d="m 16,0 c -2,0 -6,6 -6,10 l 0,1 0,1 0,6 c 0,0 -8,8 -8,10 l 0,2 8,0 c 0,0 2,2 6,2 4,0 6,-2 6,-2 l 8,0 0,-2 C 30,26 22,18 22,18 l 0,-6 0,-1 0,-1 C 22,6 18,0 16,0 z m 0,1 c -0.0039,0 0.52312,0.1752929 1.09375,0.71875 0.57063,0.5434571 1.223509,1.3701151 1.8125,2.3125 C 20.084231,5.9160199 21,8.3359375 21,10 l 0,1 0,0.46875 c -0.133884,0.119425 -0.260722,0.286611 -0.9375,0.625 C 19.182689,12.533656 17.832031,13 16,13 14.167969,13 12.817311,12.533656 11.9375,12.09375 11.260722,11.755361 11.133884,11.588175 11,11.46875 L 11,11 11,10 C 11,8.3359375 11.915769,5.9160199 13.09375,4.03125 13.682741,3.0888651 14.33562,2.2622071 14.90625,1.71875 15.47688,1.1752929 16.0039,1 16,1 z M 11,12.71875 C 11.963997,13.292205 13.620513,14 16,14 c 2.379487,0 4.036003,-0.707795 5,-1.28125 L 21,18 21,29.46875 c -0.133884,0.119425 -0.260722,0.286611 -0.9375,0.625 C 19.182689,30.533656 17.832031,31 16,31 14.167969,31 12.817311,30.533656 11.9375,30.09375 11.260722,29.755361 11.133884,29.588175 11,29.46875 L 11,18 11,12.71875 z M 10,19.4375 10,29 3,29 3,28 C 3,28.0782 3.034203,27.814776 3.21875,27.46875 3.4032971,27.122724 3.6729452,26.680169 4.03125,26.1875 4.7478596,25.202162 5.7620301,24.017716 6.75,22.90625 8.3775821,21.07522 9.4746844,19.969284 10,19.4375 z m 12,0 c 0.525316,0.531784 1.622418,1.63772 3.25,3.46875 0.98797,1.111466 2.00214,2.295912 2.71875,3.28125 0.358305,0.492669 0.627953,0.935224 0.8125,1.28125 C 28.9658,27.814776 29,28.0782 29,28 l 0,1 -7,0 0,-9.5625 z"
       id="path3064"
       inkscape:connector-curvature="0" />
    <path
       style="color:#000000;fill:url(#radialGradient4051);fill-opacity:1;fill-rule:nonzero;stroke:none;stroke-width:1px;marker:none;visibility:visible;display:inline;overflow:visible;enable-background:accumulate"
       d="m 22,19.4375 c 0.525316,0.531784 1.622418,1.63772 3.25,3.46875 0.98797,1.111466 2.00214,2.295912 2.71875,3.28125 0.358305,0.492669 0.627953,0.935224 0.8125,1.28125 C 28.9658,27.814776 29,28.0782 29,28 l 0,1 -7,0 0,-9.5625 z"
       id="path3255"
       inkscape:connector-curvature="0" />
    <path
       style="color:#000000;fill:url(#radialGradient4059);fill-opacity:1;fill-rule:nonzero;stroke:none;stroke-width:1px;marker:none;visibility:visible;display:inline;overflow:visible;enable-background:accumulate"
       d="M 10,19.4375 10,29 3,29 3,28 C 3,28.0782 3.0342,27.814776 3.21875,27.46875 3.403297,27.122724 3.672945,26.680169 4.03125,26.1875 4.74786,25.202162 5.76203,24.017716 6.75,22.90625 8.377582,21.07522 9.474684,19.969284 10,19.4375 z"
       id="path3251"
       inkscape:connector-curvature="0" />
    <path
       style="color:#000000;fill:url(#linearGradient4067);fill-opacity:1;fill-rule:nonzero;stroke:none;stroke-width:1px;marker:none;visibility:visible;display:inline;overflow:visible;enable-background:accumulate"
       d="m 11,12.71875 c 0.481998,0.286728 1.136685,0.595119 1.96875,0.84375 C 13.800815,13.811131 14.810257,14 16,14 17.189744,14 18.199186,13.811131 19.03125,13.5625 19.863314,13.313869 20.518002,13.005478 21,12.71875 L 21,18 21,29.46875 c -0.133884,0.119425 -0.260722,0.286611 -0.9375,0.625 -0.439906,0.219953 -1.010855,0.453426 -1.6875,0.625 C 17.698355,30.890324 16.916016,31 16,31 15.083984,31 14.301645,30.890324 13.625,30.71875 12.948355,30.547176 12.377406,30.313703 11.9375,30.09375 11.260722,29.755361 11.133884,29.588175 11,29.46875 L 11,18 11,12.71875 z"
       id="path3247"
       inkscape:connector-curvature="0" />
    <path
       style="color:#000000;fill:url(#radialGradient4035);fill-opacity:1;fill-rule:nonzero;stroke:none;stroke-width:1px;marker:none;visibility:visible;display:inline;overflow:visible;enable-background:accumulate"
       d="m 16,1 c -0.0039,0 0.52312,0.175293 1.09375,0.71875 0.57063,0.543457 1.223509,1.370115 1.8125,2.3125 0.58899,0.942385 1.12381,2.0139166 1.5,3.0625 C 20.78244,8.1423334 21,9.1679685 21,10 l 0,1 0,0.46875 c -0.133884,0.119425 -0.260722,0.286611 -0.9375,0.625 -0.439906,0.219953 -1.010855,0.453426 -1.6875,0.625 C 17.698355,12.890324 16.916016,13 16,13 15.083984,13 14.301645,12.890324 13.625,12.71875 12.948355,12.547176 12.377406,12.313703 11.9375,12.09375 11.260722,11.755361 11.133884,11.588175 11,11.46875 L 11,11 11,10 c 0,-0.8320315 0.21756,-1.8576666 0.59375,-2.90625 0.37619,-1.0485834 0.911009,-2.120115 1.5,-3.0625 0.588991,-0.942385 1.24187,-1.769043 1.8125,-2.3125 C 15.47688,1.175293 16.0039,1 16,1 z"
       id="path3243"
       inkscape:connector-curvature="0" />
    <path
       style="color:#000000;fill:url(#linearGradient4218);fill-opacity:1;fill-rule:nonzero;stroke:none;stroke-width:1px;marker:none;visibility:visible;display:inline;overflow:visible;enable-background:accumulate"
       d="m 16,1 c 0.0039,0 -0.52312,0.175293 -1.09375,0.71875 -0.57063,0.543457 -1.223509,1.370115 -1.8125,2.3125 -0.588991,0.942385 -1.12381,2.0139166 -1.5,3.0625 C 11.21756,8.142333 11,9.167969 11,10 l 0,1 0,0.46875 c 0.133884,0.119425 0.260722,0.286611 0.9375,0.625 0.439906,0.219953 1.010855,0.453426 1.6875,0.625 C 14.301645,12.890324 15.083984,13 16,13 c 0.916016,0 1.698355,-0.109676 2.375,-0.28125 0.676645,-0.171574 1.247594,-0.405047 1.6875,-0.625 0.676778,-0.338389 0.803616,-0.505575 0.9375,-0.625 L 21,11 21,10 C 21,9.167969 20.78244,8.142333 20.40625,7.09375 20.03006,6.0451666 19.49524,4.973635 18.90625,4.03125 18.317259,3.088865 17.66438,2.262207 17.09375,1.71875 16.52312,1.175293 15.9961,1 16,1 z m 0,1.15625 c 0.122718,0.078567 0.254271,0.1365086 0.40625,0.28125 0.480496,0.457615 1.103682,1.2408915 1.65625,2.125 0.552923,0.8846778 1.058431,1.9054968 1.40625,2.875 C 19.816569,8.4070026 20,9.340849 20,10 l 0,0.96875 c -0.07367,0.05548 -0.06403,0.09451 -0.375,0.25 -0.383982,0.191991 -0.902291,0.379691 -1.5,0.53125 C 17.527289,11.901559 16.836855,12 16,12 15.163145,12 14.472711,11.90156 13.875,11.75 13.277291,11.598441 12.758982,11.410741 12.375,11.21875 12.06403,11.063263 12.07367,11.024233 12,10.96875 L 12,10 C 12,9.340849 12.183431,8.4070026 12.53125,7.4375 12.879069,6.4679962 13.384577,5.447177 13.9375,4.5625 14.490068,3.6783915 15.113254,2.895115 15.59375,2.4375 15.745729,2.2927586 15.877282,2.234817 16,2.15625 z"
       id="path4204"
       inkscape:connector-curvature="0" />
    <path
       style="color:#000000;fill:url(#radialGradient4242);fill-opacity:1;fill-rule:nonzero;stroke:none;stroke-width:1px;marker:none;visibility:visible;display:inline;overflow:visible;enable-background:accumulate"
       d="M 11,12.71875 11,18 11,29.46875 c 0.133884,0.119425 0.260722,0.286611 0.9375,0.625 0.439906,0.219953 1.010855,0.453426 1.6875,0.625 C 14.301645,30.890324 15.083984,31 16,31 c 0.916016,0 1.698355,-0.109676 2.375,-0.28125 0.676645,-0.171574 1.247594,-0.405047 1.6875,-0.625 0.676778,-0.338389 0.803616,-0.505575 0.9375,-0.625 L 21,18 21,12.71875 C 20.518002,13.005478 19.863314,13.313869 19.03125,13.5625 18.199186,13.811131 17.189744,14 16,14 14.810257,14 13.800815,13.811131 12.96875,13.5625 12.136685,13.313869 11.481998,13.005478 11,12.71875 z m 1,1.5 c 0.248914,0.09584 0.403243,0.196311 0.6875,0.28125 0.910879,0.272182 2.0178,0.5 3.3125,0.5 1.294701,0 2.401622,-0.227818 3.3125,-0.5 C 19.596756,14.41506 19.751086,14.314594 20,14.21875 L 20,18 20,28.96875 c -0.07367,0.05548 -0.06403,0.09451 -0.375,0.25 -0.383982,0.191991 -0.902291,0.379691 -1.5,0.53125 C 17.527289,29.90156 16.836855,30 16,30 15.163145,30 14.472711,29.90156 13.875,29.75 13.277291,29.598441 12.758982,29.410741 12.375,29.21875 12.06403,29.06326 12.07367,29.02423 12,28.96875 L 12,18 12,14.21875 z"
       id="path4200"
       inkscape:connector-curvature="0" />
    <path
       style="color:#000000;fill:url(#linearGradient4252);fill-opacity:1;fill-rule:nonzero;stroke:none;stroke-width:1px;marker:none;visibility:visible;display:inline;overflow:visible;enable-background:accumulate"
       d="M 22,19.4375 22,29 l 7,0 0,-1 C 29,28.0782 28.9658,27.814776 28.78125,27.46875 28.596703,27.122724 28.327055,26.680169 27.96875,26.1875 27.25214,25.202162 26.23797,24.017716 25.25,22.90625 23.622418,21.07522 22.525316,19.969284 22,19.4375 z m 1,2.53125 c 0.516092,0.545503 0.750685,0.75077 1.5,1.59375 0.979433,1.101862 1.97907,2.287629 2.65625,3.21875 0.331351,0.455607 0.588987,0.854351 0.75,1.15625 0.01433,0.02687 0.01971,0.03747 0.03125,0.0625 L 23,28 23,21.96875 z"
       id="path4194"
       inkscape:connector-curvature="0" />
    <path
       style="color:#000000;fill:url(#linearGradient4275);fill-opacity:1;fill-rule:nonzero;stroke:none;stroke-width:1px;marker:none;visibility:visible;display:inline;overflow:visible;enable-background:accumulate"
       d="M 10,19.4375 10,29 3,29 3,28 C 3,28.0782 3.0342,27.814776 3.21875,27.46875 3.403297,27.122724 3.672945,26.680169 4.03125,26.1875 4.74786,25.202162 5.76203,24.017716 6.75,22.90625 8.377582,21.07522 9.474684,19.969284 10,19.4375 z M 9,21.96875 C 8.483908,22.514253 8.249315,22.71952 7.5,23.5625 6.520567,24.664362 5.52093,25.850129 4.84375,26.78125 4.512399,27.236857 4.254763,27.635601 4.09375,27.9375 4.07942,27.96437 4.07404,27.97497 4.0625,28 L 9,28 9,21.96875 z"
       id="path4194-8"
       inkscape:connector-curvature="0" />
  </g>
</svg>
