<?xml version="1.0" encoding="UTF-8" standalone="no"?>
<!-- Created with Inkscape (http://www.inkscape.org/) -->

<svg
   xmlns:dc="http://purl.org/dc/elements/1.1/"
   xmlns:cc="http://creativecommons.org/ns#"
   xmlns:rdf="http://www.w3.org/1999/02/22-rdf-syntax-ns#"
   xmlns:svg="http://www.w3.org/2000/svg"
   xmlns="http://www.w3.org/2000/svg"
   xmlns:xlink="http://www.w3.org/1999/xlink"
   xmlns:sodipodi="http://sodipodi.sourceforge.net/DTD/sodipodi-0.dtd"
   xmlns:inkscape="http://www.inkscape.org/namespaces/inkscape"
   width="16px"
   height="16px"
   id="svg3123"
   version="1.1"
   inkscape:version="0.48.2 r9819"
   sodipodi:docname="msile-16px.svg"
   inkscape:export-xdpi="1440"
   inkscape:export-ydpi="1440">
  <title
     id="title3947">msile 16px icon</title>
  <defs
     id="defs3125">
    <linearGradient
       id="linearGradient4286">
      <stop
         style="stop-color:#606060;stop-opacity:1;"
         offset="0"
         id="stop4288" />
      <stop
         id="stop4294"
         offset="0.5"
         style="stop-color:#c0c0c0;stop-opacity:1;" />
      <stop
         style="stop-color:#606060;stop-opacity:1;"
         offset="1"
         id="stop4290" />
    </linearGradient>
    <linearGradient
       id="linearGradient3977">
      <stop
         style="stop-color:#ff6666;stop-opacity:1;"
         offset="0"
         id="stop3979" />
      <stop
         id="stop3987"
         offset="0.5"
         style="stop-color:#eb0000;stop-opacity:1;" />
      <stop
         style="stop-color:#a20000;stop-opacity:1;"
         offset="1"
         id="stop3981" />
    </linearGradient>
    <linearGradient
       id="linearGradient3969">
      <stop
         style="stop-color:#000000;stop-opacity:1;"
         offset="0"
         id="stop3971" />
      <stop
         style="stop-color:#000544;stop-opacity:1;"
         offset="1"
         id="stop3973" />
    </linearGradient>
    <radialGradient
       inkscape:collect="always"
       xlink:href="#linearGradient3977"
       id="radialGradient3983"
       cx="8"
       cy="2.6010206"
       fx="8"
       fy="2.6010206"
       r="2"
       gradientTransform="matrix(1,0,0,2.0000001,0,-3.2020412)"
       gradientUnits="userSpaceOnUse" />
    <linearGradient
       inkscape:collect="always"
       xlink:href="#linearGradient3977"
       id="linearGradient3999"
       x1="-1"
       y1="12"
       x2="-2"
       y2="14"
       gradientUnits="userSpaceOnUse" />
    <linearGradient
       inkscape:collect="always"
       xlink:href="#linearGradient3977"
       id="linearGradient4009"
       x1="-1"
       y1="12"
       x2="-2"
       y2="14"
       gradientUnits="userSpaceOnUse" />
    <linearGradient
       inkscape:collect="always"
       xlink:href="#linearGradient3969"
       id="linearGradient4039"
       gradientUnits="userSpaceOnUse"
       x1="8"
       y1="16"
       x2="8"
       y2="0" />
    <linearGradient
       gradientTransform="matrix(-1,0,0,1,11,-1)"
       inkscape:collect="always"
       xlink:href="#linearGradient3977-0"
       id="linearGradient4009-6"
       x1="-1"
       y1="12"
       x2="-2"
       y2="14"
       gradientUnits="userSpaceOnUse" />
    <linearGradient
       id="linearGradient3977-0">
      <stop
         style="stop-color:#ff6666;stop-opacity:1;"
         offset="0"
         id="stop3979-3" />
      <stop
         id="stop3987-6"
         offset="0.5"
         style="stop-color:#eb0000;stop-opacity:1;" />
      <stop
         style="stop-color:#a20000;stop-opacity:1;"
         offset="1"
         id="stop3981-2" />
    </linearGradient>
    <linearGradient
       inkscape:collect="always"
       xlink:href="#linearGradient3969-5"
       id="linearGradient4065-4"
       gradientUnits="userSpaceOnUse"
       gradientTransform="translate(0,-1)"
       x1="8"
       y1="16"
       x2="8"
       y2="0" />
    <linearGradient
       id="linearGradient3969-5">
      <stop
         style="stop-color:#000000;stop-opacity:1;"
         offset="0"
         id="stop3971-8" />
      <stop
         style="stop-color:#000544;stop-opacity:1;"
         offset="1"
         id="stop3973-8" />
    </linearGradient>
    <linearGradient
       inkscape:collect="always"
       xlink:href="#linearGradient3969"
       id="linearGradient4129"
       gradientUnits="userSpaceOnUse"
       gradientTransform="translate(0,-1)"
       x1="8"
       y1="16"
       x2="8"
       y2="0" />
    <linearGradient
       inkscape:collect="always"
       xlink:href="#linearGradient3969-4"
       id="linearGradient4129-1"
       gradientUnits="userSpaceOnUse"
       gradientTransform="translate(0,-1)"
       x1="8"
       y1="16"
       x2="8"
       y2="0" />
    <linearGradient
       id="linearGradient3969-4">
      <stop
         style="stop-color:#000000;stop-opacity:1;"
         offset="0"
         id="stop3971-9" />
      <stop
         style="stop-color:#000544;stop-opacity:1;"
         offset="1"
         id="stop3973-82" />
    </linearGradient>
    <linearGradient
       inkscape:collect="always"
       xlink:href="#linearGradient3969-9"
       id="linearGradient4129-2"
       gradientUnits="userSpaceOnUse"
       gradientTransform="translate(0,-1)"
       x1="8"
       y1="16"
       x2="8"
       y2="0" />
    <linearGradient
       id="linearGradient3969-9">
      <stop
         style="stop-color:#000000;stop-opacity:1;"
         offset="0"
         id="stop3971-98" />
      <stop
         style="stop-color:#000544;stop-opacity:1;"
         offset="1"
         id="stop3973-3" />
    </linearGradient>
    <linearGradient
       y2="0"
       x2="8"
       y1="16"
       x1="8"
       gradientTransform="translate(0,-1)"
       gradientUnits="userSpaceOnUse"
       id="linearGradient4208"
       xlink:href="#linearGradient3969-9"
       inkscape:collect="always" />
    <linearGradient
       inkscape:collect="always"
       xlink:href="#linearGradient3969-8"
       id="linearGradient4129-9"
       gradientUnits="userSpaceOnUse"
       gradientTransform="translate(0,-1)"
       x1="8"
       y1="16"
       x2="8"
       y2="0" />
    <linearGradient
       id="linearGradient3969-8">
      <stop
         style="stop-color:#000000;stop-opacity:1;"
         offset="0"
         id="stop3971-6" />
      <stop
         style="stop-color:#000544;stop-opacity:1;"
         offset="1"
         id="stop3973-6" />
    </linearGradient>
    <linearGradient
       y2="0"
       x2="8"
       y1="16"
       x1="8"
       gradientTransform="translate(0,-1)"
       gradientUnits="userSpaceOnUse"
       id="linearGradient4265"
       xlink:href="#linearGradient3969-8"
       inkscape:collect="always" />
    <linearGradient
       inkscape:collect="always"
       xlink:href="#linearGradient4286"
       id="linearGradient4292"
       x1="6"
       y1="10.84375"
       x2="10"
       y2="10.84375"
       gradientUnits="userSpaceOnUse" />
    <linearGradient
       inkscape:collect="always"
       xlink:href="#linearGradient4286-8"
       id="linearGradient4292-3"
       x1="6"
       y1="10.84375"
       x2="10"
       y2="10.84375"
       gradientUnits="userSpaceOnUse" />
    <linearGradient
       id="linearGradient4286-8">
      <stop
         style="stop-color:#606060;stop-opacity:1;"
         offset="0"
         id="stop4288-2" />
      <stop
         id="stop4294-6"
         offset="0.5"
         style="stop-color:#c0c0c0;stop-opacity:1;" />
      <stop
         style="stop-color:#606060;stop-opacity:1;"
         offset="1"
         id="stop4290-2" />
    </linearGradient>
    <linearGradient
       inkscape:collect="always"
       xlink:href="#linearGradient4286-7"
       id="linearGradient4292-5"
       x1="6"
       y1="10.84375"
       x2="10"
       y2="10.84375"
       gradientUnits="userSpaceOnUse" />
    <linearGradient
       id="linearGradient4286-7">
      <stop
         style="stop-color:#606060;stop-opacity:1;"
         offset="0"
         id="stop4288-8" />
      <stop
         id="stop4294-2"
         offset="0.5"
         style="stop-color:#c0c0c0;stop-opacity:1;" />
      <stop
         style="stop-color:#606060;stop-opacity:1;"
         offset="1"
         id="stop4290-7" />
    </linearGradient>
    <linearGradient
       gradientTransform="translate(-8,-5)"
       y2="10.84375"
       x2="10"
       y1="10.84375"
       x1="6"
       gradientUnits="userSpaceOnUse"
       id="linearGradient4312"
       xlink:href="#linearGradient4286-7"
       inkscape:collect="always" />
    <linearGradient
       inkscape:collect="always"
       xlink:href="#linearGradient4286-7"
       id="linearGradient4354"
       gradientUnits="userSpaceOnUse"
       gradientTransform="translate(-8,-5)"
       x1="6"
       y1="10.84375"
       x2="10"
       y2="10.84375" />
    <radialGradient
       inkscape:collect="always"
       xlink:href="#linearGradient3977-2"
       id="radialGradient3983-0"
       cx="8"
       cy="2.6010206"
       fx="8"
       fy="2.6010206"
       r="2"
       gradientTransform="matrix(1,0,0,2.0000001,0,-3.2020412)"
       gradientUnits="userSpaceOnUse" />
    <linearGradient
       id="linearGradient3977-2">
      <stop
         style="stop-color:#ff6666;stop-opacity:1;"
         offset="0"
         id="stop3979-0" />
      <stop
         id="stop3987-8"
         offset="0.5"
         style="stop-color:#eb0000;stop-opacity:1;" />
      <stop
         style="stop-color:#a20000;stop-opacity:1;"
         offset="1"
         id="stop3981-9" />
    </linearGradient>
    <radialGradient
       r="2"
       fy="2.6010206"
       fx="8"
       cy="2.6010206"
       cx="8"
       gradientTransform="matrix(1,0,0,2.0000001,-6,-5.2020412)"
       gradientUnits="userSpaceOnUse"
       id="radialGradient4379"
       xlink:href="#linearGradient3977-2"
       inkscape:collect="always" />
    <radialGradient
       inkscape:collect="always"
       xlink:href="#linearGradient3977-20"
       id="radialGradient3983-8"
       cx="8"
       cy="2.6010206"
       fx="8"
       fy="2.6010206"
       r="2"
       gradientTransform="matrix(1,0,0,2.0000001,0,-3.2020412)"
       gradientUnits="userSpaceOnUse" />
    <linearGradient
       id="linearGradient3977-20">
      <stop
         style="stop-color:#ff6666;stop-opacity:1;"
         offset="0"
         id="stop3979-5" />
      <stop
         id="stop3987-5"
         offset="0.5"
         style="stop-color:#eb0000;stop-opacity:1;" />
      <stop
         style="stop-color:#a20000;stop-opacity:1;"
         offset="1"
         id="stop3981-27" />
    </linearGradient>
    <radialGradient
       r="2"
       fy="2.6010206"
       fx="8"
       cy="2.6010206"
       cx="8"
       gradientTransform="matrix(1,0,0,2.0000001,-6,-6.2020412)"
       gradientUnits="userSpaceOnUse"
       id="radialGradient4379-6"
       xlink:href="#linearGradient3977-20"
       inkscape:collect="always" />
    <filter
       inkscape:collect="always"
       id="filter3930"
       x="-0.047452698"
       width="1.0949054"
       y="-0.33216889"
       height="1.6643378">
      <feGaussianBlur
         inkscape:collect="always"
         stdDeviation="0.27680741"
         id="feGaussianBlur3932" />
    </filter>
  </defs>
  <sodipodi:namedview
     id="base"
     pagecolor="#ffffff"
     bordercolor="#666666"
     borderopacity="1.0"
     inkscape:pageopacity="0.0"
     inkscape:pageshadow="2"
     inkscape:zoom="32"
     inkscape:cx="7.7058317"
     inkscape:cy="3.1766069"
     inkscape:current-layer="layer1"
     showgrid="true"
     inkscape:grid-bbox="true"
     inkscape:document-units="px"
     width="0px"
     height="0px"
     fit-margin-top="0"
     fit-margin-left="0"
     fit-margin-right="0"
     fit-margin-bottom="0"
     guidetolerance="10000"
     inkscape:snap-path-clip="true"
     inkscape:snap-path-mask="true"
     objecttolerance="10000"
     inkscape:window-width="1024"
     inkscape:window-height="682"
     inkscape:window-x="-4"
     inkscape:window-y="-4"
     inkscape:window-maximized="1"
     showguides="true"
     inkscape:guide-bbox="true">
    <inkscape:grid
       type="xygrid"
       id="grid3131"
       empspacing="5"
       visible="true"
       enabled="true"
       snapvisiblegridlinesonly="true" />
    <sodipodi:guide
       orientation="1,0"
       position="1,4"
       id="guide4058" />
  </sodipodi:namedview>
  <metadata
     id="metadata3128">
    <rdf:RDF>
      <cc:Work
         rdf:about="">
        <dc:format>image/svg+xml</dc:format>
        <dc:type
           rdf:resource="http://purl.org/dc/dcmitype/StillImage" />
        <dc:title>msile 16px icon</dc:title>
      </cc:Work>
    </rdf:RDF>
  </metadata>
  <g
     id="layer1"
     inkscape:label="Layer 1"
     inkscape:groupmode="layer">
    <path
       sodipodi:type="arc"
       style="opacity:0.80373828000000003;color:#000000;fill:#000000;fill-opacity:0.75294119;fill-rule:evenodd;stroke:#000000;stroke-width:0;stroke-linecap:butt;stroke-linejoin:miter;stroke-miterlimit:4;stroke-opacity:1;stroke-dasharray:none;stroke-dashoffset:0;marker:none;visibility:visible;display:inline;overflow:visible;filter:url(#filter3930);enable-background:accumulate"
       id="path3060"
       sodipodi:cx="8"
       sodipodi:cy="14"
       sodipodi:rx="7"
       sodipodi:ry="1"
       d="M 15,14 A 7,1 0 1 1 1,14 7,1 0 1 1 15,14 z"
       transform="matrix(1.1428572,0,0,2,-1.1428572,-14)" />
    <path
       transform="translate(5,-1)"
       style="fill:url(#linearGradient4009);fill-opacity:1;stroke:none"
       d="m 0,11.4375 -3,3 0,0.5625 3,0 0,-1 z"
       id="path3805-0"
       inkscape:connector-curvature="0"
       sodipodi:nodetypes="cccccc" />
    <path
       style="color:#000000;fill:#ffffff;fill-opacity:0.31460676;fill-rule:nonzero;stroke:none;stroke-width:1px;marker:none;visibility:visible;display:inline;overflow:visible;enable-background:accumulate"
       d="M 5 10.4375 L 4 11.4375 L 4 13 L 2.4375 13 L 2 13.4375 L 2 14 L 2.4375 14 L 4 14 L 5 14 L 5 10.4375 z "
       id="rect4132" />
    <path
       style="fill:url(#linearGradient4129);fill-opacity:1;stroke:none"
       d="M 8 0 C 7 0 5 3 5 5 L 5 6 L 5 7 L 5 9 L 1 13 L 1 14 L 1 15 L 5 15 C 5 15 6 16 8 16 C 10 16 11 15 11 15 L 15 15 L 15 14 L 15 13 L 11 9 L 11 6 L 11 5 C 11 3 9 -2.0816682e-017 8 0 z M 8 1.09375 C 8.0614757 1.0938893 8.1259579 1.1404929 8.1875 1.21875 C 8.4301746 1.4498686 8.7546881 1.8387509 9.03125 2.28125 C 9.5843739 3.1662482 10 4.335272 10 5 C 10 5.332364 9.9540776 5.4920849 9.875 5.59375 C 9.8557446 5.6062209 9.8573794 5.60256 9.8125 5.625 C 9.5261455 5.7681772 9.1314262 5.9080241 8.59375 5.96875 C 8.3949482 5.9828064 8.1827917 6 8 6 C 7.8172083 6 7.6050518 5.9828064 7.40625 5.96875 C 6.8685737 5.9080241 6.4738543 5.7681772 6.1875 5.625 C 6.1426205 5.6025603 6.1442554 5.6062211 6.125 5.59375 C 6.0459224 5.4920849 6 5.332364 6 5 C 6 4.335272 6.4156261 3.1662482 6.96875 2.28125 C 7.2453119 1.8387509 7.5698254 1.4498686 7.8125 1.21875 C 7.8800552 1.1399356 7.9385243 1.0936107 8 1.09375 z M 6 6.6875 C 6.4178645 6.8846156 6.8748934 6.9418721 7.3125 6.96875 C 7.5533423 6.9835426 7.8102171 7 8 7 C 8.1897829 7 8.4466577 6.9835426 8.6875 6.96875 C 9.1251066 6.9418721 9.5821355 6.8846156 10 6.6875 L 10 10 L 10 14.5 C 9.924345 14.55012 9.958358 14.55207 9.8125 14.625 C 9.4306943 14.815903 8.8348185 15 8 15 C 7.1651815 15 6.5693057 14.815903 6.1875 14.625 C 6.0416416 14.552071 6.0756555 14.550118 6 14.5 L 6 10 L 6 6.6875 z M 5 10.4375 L 5 11.4375 L 5 14 L 2.4375 14 L 2 14 L 2 13.4375 L 5 10.4375 z M 11 10.4375 L 14 13.4375 L 14 14 L 13.5625 14 L 11 14 L 11 10.4375 z "
       id="path4068" />
    <path
       style="color:#000000;fill:url(#radialGradient3983);fill-opacity:1;fill-rule:nonzero;stroke:none;stroke-width:1px;marker:none;visibility:visible;display:inline;overflow:visible;enable-background:accumulate"
       d="M 7.8125,1.21875 C 7.5698254,1.4498686 7.2453119,1.8387509 6.96875,2.28125 6.4156261,3.1662482 6,4.335272 6,5 6,5.664728 6.1326211,5.6655485 6.5,5.8125 6.8673789,5.9594515 7.5,6 8,6 8.5,6 9.1326211,5.959452 9.5,5.8125 9.8673789,5.6655485 10,5.664728 10,5 10,4.335272 9.5843739,3.1662482 9.03125,2.28125 8.7546881,1.8387509 8.4301746,1.4498686 8.1875,1.21875 c -0.1230842,-0.1565142 -0.2398897,-0.1576287 -0.375,0 z"
       id="path3938-2"
       inkscape:connector-curvature="0"
       sodipodi:nodetypes="cssssssscc" />
    <path
       style="fill:url(#linearGradient4009-6);fill-opacity:1;stroke:none"
       d="m 11,10.4375 3,3 0,0.5625 -3,0 0,-1 z"
       id="path3805-0-2"
       inkscape:connector-curvature="0"
       sodipodi:nodetypes="cccccc" />
    <path
       style="color:#000000;fill:#ffffff;fill-opacity:0.31460676;fill-rule:nonzero;stroke:none;stroke-width:1px;marker:none;visibility:visible;display:inline;overflow:visible;enable-background:accumulate"
       d="M 11 10.4375 L 11 14 L 12 14 L 13.5625 14 L 14 14 L 14 13.4375 L 13.5625 13 L 12 13 L 12 11.4375 L 11 10.4375 z "
       id="rect4132-5" />
    <path
       style="color:#000000;fill:url(#linearGradient4292);fill-opacity:1;fill-rule:nonzero;stroke:none;stroke-width:1px;marker:none;visibility:visible;display:inline;overflow:visible;enable-background:accumulate"
       d="M 6 6.6875 L 6 10 L 6 14.5 C 6.0756555 14.550118 6.0416416 14.552071 6.1875 14.625 C 6.5693057 14.815903 7.1651815 15 8 15 C 8.8348185 15 9.4306943 14.815903 9.8125 14.625 C 9.958358 14.55207 9.924345 14.55012 10 14.5 L 10 10 L 10 6.6875 C 9.5821355 6.8846156 9.1251066 6.9418721 8.6875 6.96875 C 8.4466577 6.9835426 8.1897829 7 8 7 C 7.8102171 7 7.5533423 6.9835426 7.3125 6.96875 C 6.8748934 6.9418721 6.4178645 6.8846156 6 6.6875 z "
       id="rect4248" />
    <path
       style="color:#000000;fill:#ffffff;fill-opacity:0.50196078;fill-rule:nonzero;stroke:none;stroke-width:1px;marker:none;visibility:visible;display:inline;overflow:visible;enable-background:accumulate"
       d="M 6,6.6875 6,10 6,14.5 c 0.075655,0.05012 0.041642,0.05207 0.1875,0.125 C 6.5693057,14.815903 7.1651815,15 8,15 8.8348185,15 9.4306943,14.815903 9.8125,14.625 9.958358,14.55207 9.924345,14.55012 10,14.5 L 10,10 10,6.6875 C 9.5821355,6.8846156 9.1251066,6.9418721 8.6875,6.96875 8.4466577,6.9835426 8.1897829,7 8,7 7.8102171,7 7.5533423,6.9835426 7.3125,6.96875 6.8748934,6.9418721 6.4178645,6.8846156 6,6.6875 z m 1,1.21875 c 0.076252,0.0064 0.1782571,0.058094 0.25,0.0625 C 7.4889868,7.9834286 7.7529108,8 8,8 8.2470892,8 8.5110133,7.9834286 8.75,7.96875 8.8217429,7.9643435 8.9237475,7.9126524 9,7.90625 L 9,10 9,13.8125 C 8.7433197,13.902187 8.5016555,14 8,14 7.4983445,14 7.2566803,13.902187 7,13.8125 L 7,10 7,7.90625 z"
       id="rect4248-7"
       inkscape:connector-curvature="0" />
    <path
       style="color:#000000;fill:#ffffff;fill-opacity:0.31460676;fill-rule:nonzero;stroke:none;stroke-width:1px;marker:none;visibility:visible;display:inline;overflow:visible;enable-background:accumulate"
       d="M 6.0625,4.4375 C 6.0195166,4.6411841 6,4.8424686 6,5 6,5.664728 6.1326211,5.6655485 6.5,5.8125 6.8673789,5.9594515 7.5,6 8,6 8.5,6 9.1326211,5.959452 9.5,5.8125 9.8673789,5.6655485 10,5.664728 10,5 10,4.8424686 9.9804834,4.6411841 9.9375,4.4375 9.87225,4.6541413 9.7486142,4.7130544 9.5,4.8125 9.1326211,4.959452 8.5,5 8,5 7.5,5 6.8673789,4.9594515 6.5,4.8125 6.2513858,4.7130544 6.12775,4.6541413 6.0625,4.4375 z"
       id="path3938-2-2"
       inkscape:connector-curvature="0" />
  </g>
</svg>
