<?xml version="1.0" encoding="UTF-8" standalone="no"?>
<!-- Created with Inkscape (http://www.inkscape.org/) -->

<svg
   xmlns:dc="http://purl.org/dc/elements/1.1/"
   xmlns:cc="http://creativecommons.org/ns#"
   xmlns:rdf="http://www.w3.org/1999/02/22-rdf-syntax-ns#"
   xmlns:svg="http://www.w3.org/2000/svg"
   xmlns="http://www.w3.org/2000/svg"
   xmlns:xlink="http://www.w3.org/1999/xlink"
   xmlns:sodipodi="http://sodipodi.sourceforge.net/DTD/sodipodi-0.dtd"
   xmlns:inkscape="http://www.inkscape.org/namespaces/inkscape"
   width="48"
   height="48"
   id="svg3123"
   version="1.1"
   inkscape:version="0.48.2 r9819"
   sodipodi:docname="msile-48px.svg"
   inkscape:export-xdpi="1440"
   inkscape:export-ydpi="1440">
  <title
     id="title3947">msile 16px icon</title>
  <defs
     id="defs3125">
    <linearGradient
       id="linearGradient4254">
      <stop
         id="stop4256"
         offset="0"
         style="stop-color:#ffffff;stop-opacity:0.50196081;" />
      <stop
         id="stop4258"
         offset="1"
         style="stop-color:#ffffff;stop-opacity:0.1882353;" />
    </linearGradient>
    <linearGradient
       id="linearGradient4234">
      <stop
         id="stop4236"
         offset="0"
         style="stop-color:#ffffff;stop-opacity:0.3764706;" />
      <stop
         style="stop-color:#ffffff;stop-opacity:0.3137255;"
         offset="0.79999995"
         id="stop4244" />
      <stop
         id="stop4238"
         offset="1"
         style="stop-color:#ffffff;stop-opacity:0.56470591;" />
    </linearGradient>
    <linearGradient
       id="linearGradient4220">
      <stop
         id="stop4222"
         offset="0"
         style="stop-color:#ffffff;stop-opacity:0.50196081;" />
      <stop
         id="stop4224"
         offset="1"
         style="stop-color:#ffffff;stop-opacity:0.25098041;" />
    </linearGradient>
    <linearGradient
       id="linearGradient4286">
      <stop
         style="stop-color:#606060;stop-opacity:1;"
         offset="0"
         id="stop4288" />
      <stop
         id="stop4294"
         offset="0.5"
         style="stop-color:#c0c0c0;stop-opacity:1;" />
      <stop
         style="stop-color:#606060;stop-opacity:1;"
         offset="1"
         id="stop4290" />
    </linearGradient>
    <linearGradient
       id="linearGradient3977">
      <stop
         style="stop-color:#ff6666;stop-opacity:1;"
         offset="0"
         id="stop3979" />
      <stop
         id="stop3987"
         offset="0.5"
         style="stop-color:#eb0000;stop-opacity:1;" />
      <stop
         style="stop-color:#a20000;stop-opacity:1;"
         offset="1"
         id="stop3981" />
    </linearGradient>
    <linearGradient
       id="linearGradient3969">
      <stop
         style="stop-color:#000000;stop-opacity:1;"
         offset="0"
         id="stop3971" />
      <stop
         style="stop-color:#000544;stop-opacity:1;"
         offset="1"
         id="stop3973" />
    </linearGradient>
    <radialGradient
       inkscape:collect="always"
       xlink:href="#linearGradient3977"
       id="radialGradient3983"
       cx="8"
       cy="2.6010206"
       fx="8"
       fy="2.6010206"
       r="2"
       gradientTransform="matrix(2,0,0,4.0000003,0,-22.404083)"
       gradientUnits="userSpaceOnUse" />
    <linearGradient
       inkscape:collect="always"
       xlink:href="#linearGradient3977"
       id="linearGradient3999"
       x1="-1"
       y1="12"
       x2="-2"
       y2="14"
       gradientUnits="userSpaceOnUse" />
    <linearGradient
       inkscape:collect="always"
       xlink:href="#linearGradient3977"
       id="linearGradient4009"
       x1="-1"
       y1="12"
       x2="-2"
       y2="14"
       gradientUnits="userSpaceOnUse"
       gradientTransform="matrix(2,0,0,2,10,-18.000001)" />
    <linearGradient
       inkscape:collect="always"
       xlink:href="#linearGradient3969"
       id="linearGradient4039"
       gradientUnits="userSpaceOnUse"
       x1="8"
       y1="16"
       x2="8"
       y2="0" />
    <linearGradient
       gradientTransform="matrix(-2,0,0,2,22,-18.000001)"
       inkscape:collect="always"
       xlink:href="#linearGradient3977-0"
       id="linearGradient4009-6"
       x1="-1"
       y1="12"
       x2="-2"
       y2="14"
       gradientUnits="userSpaceOnUse" />
    <linearGradient
       id="linearGradient3977-0">
      <stop
         style="stop-color:#ff6666;stop-opacity:1;"
         offset="0"
         id="stop3979-3" />
      <stop
         id="stop3987-6"
         offset="0.5"
         style="stop-color:#eb0000;stop-opacity:1;" />
      <stop
         style="stop-color:#a20000;stop-opacity:1;"
         offset="1"
         id="stop3981-2" />
    </linearGradient>
    <linearGradient
       inkscape:collect="always"
       xlink:href="#linearGradient3969-5"
       id="linearGradient4065-4"
       gradientUnits="userSpaceOnUse"
       gradientTransform="translate(0,-1)"
       x1="8"
       y1="16"
       x2="8"
       y2="0" />
    <linearGradient
       id="linearGradient3969-5">
      <stop
         style="stop-color:#000000;stop-opacity:1;"
         offset="0"
         id="stop3971-8" />
      <stop
         style="stop-color:#000544;stop-opacity:1;"
         offset="1"
         id="stop3973-8" />
    </linearGradient>
    <linearGradient
       inkscape:collect="always"
       xlink:href="#linearGradient3969"
       id="linearGradient4129"
       gradientUnits="userSpaceOnUse"
       gradientTransform="matrix(2,0,0,2,0,-18.000001)"
       x1="8"
       y1="16"
       x2="8"
       y2="0" />
    <linearGradient
       inkscape:collect="always"
       xlink:href="#linearGradient3969-4"
       id="linearGradient4129-1"
       gradientUnits="userSpaceOnUse"
       gradientTransform="translate(0,-1)"
       x1="8"
       y1="16"
       x2="8"
       y2="0" />
    <linearGradient
       id="linearGradient3969-4">
      <stop
         style="stop-color:#000000;stop-opacity:1;"
         offset="0"
         id="stop3971-9" />
      <stop
         style="stop-color:#000544;stop-opacity:1;"
         offset="1"
         id="stop3973-82" />
    </linearGradient>
    <linearGradient
       inkscape:collect="always"
       xlink:href="#linearGradient3969-9"
       id="linearGradient4129-2"
       gradientUnits="userSpaceOnUse"
       gradientTransform="translate(0,-1)"
       x1="8"
       y1="16"
       x2="8"
       y2="0" />
    <linearGradient
       id="linearGradient3969-9">
      <stop
         style="stop-color:#000000;stop-opacity:1;"
         offset="0"
         id="stop3971-98" />
      <stop
         style="stop-color:#000544;stop-opacity:1;"
         offset="1"
         id="stop3973-3" />
    </linearGradient>
    <linearGradient
       y2="0"
       x2="8"
       y1="16"
       x1="8"
       gradientTransform="translate(0,-1)"
       gradientUnits="userSpaceOnUse"
       id="linearGradient4208"
       xlink:href="#linearGradient3969-9"
       inkscape:collect="always" />
    <linearGradient
       inkscape:collect="always"
       xlink:href="#linearGradient3969-8"
       id="linearGradient4129-9"
       gradientUnits="userSpaceOnUse"
       gradientTransform="translate(0,-1)"
       x1="8"
       y1="16"
       x2="8"
       y2="0" />
    <linearGradient
       id="linearGradient3969-8">
      <stop
         style="stop-color:#000000;stop-opacity:1;"
         offset="0"
         id="stop3971-6" />
      <stop
         style="stop-color:#000544;stop-opacity:1;"
         offset="1"
         id="stop3973-6" />
    </linearGradient>
    <linearGradient
       y2="0"
       x2="8"
       y1="16"
       x1="8"
       gradientTransform="translate(0,-1)"
       gradientUnits="userSpaceOnUse"
       id="linearGradient4265"
       xlink:href="#linearGradient3969-8"
       inkscape:collect="always" />
    <linearGradient
       inkscape:collect="always"
       xlink:href="#linearGradient4286"
       id="linearGradient4292"
       x1="6"
       y1="10.84375"
       x2="10"
       y2="10.84375"
       gradientUnits="userSpaceOnUse"
       gradientTransform="matrix(2,0,0,2,0,-16)" />
    <linearGradient
       inkscape:collect="always"
       xlink:href="#linearGradient4286-8"
       id="linearGradient4292-3"
       x1="6"
       y1="10.84375"
       x2="10"
       y2="10.84375"
       gradientUnits="userSpaceOnUse" />
    <linearGradient
       id="linearGradient4286-8">
      <stop
         style="stop-color:#808080;stop-opacity:1;"
         offset="0"
         id="stop4288-2" />
      <stop
         id="stop4294-6"
         offset="0.5"
         style="stop-color:#d0d0d0;stop-opacity:1;" />
      <stop
         style="stop-color:#808080;stop-opacity:1;"
         offset="1"
         id="stop4290-2" />
    </linearGradient>
    <linearGradient
       inkscape:collect="always"
       xlink:href="#linearGradient4286-7"
       id="linearGradient4292-5"
       x1="6"
       y1="10.84375"
       x2="10"
       y2="10.84375"
       gradientUnits="userSpaceOnUse" />
    <linearGradient
       id="linearGradient4286-7">
      <stop
         style="stop-color:#606060;stop-opacity:1;"
         offset="0"
         id="stop4288-8" />
      <stop
         id="stop4294-2"
         offset="0.5"
         style="stop-color:#c0c0c0;stop-opacity:1;" />
      <stop
         style="stop-color:#606060;stop-opacity:1;"
         offset="1"
         id="stop4290-7" />
    </linearGradient>
    <linearGradient
       gradientTransform="translate(-8,-5)"
       y2="10.84375"
       x2="10"
       y1="10.84375"
       x1="6"
       gradientUnits="userSpaceOnUse"
       id="linearGradient4312"
       xlink:href="#linearGradient4286-7"
       inkscape:collect="always" />
    <linearGradient
       inkscape:collect="always"
       xlink:href="#linearGradient4286-7"
       id="linearGradient4354"
       gradientUnits="userSpaceOnUse"
       gradientTransform="translate(-8,-5)"
       x1="6"
       y1="10.84375"
       x2="10"
       y2="10.84375" />
    <radialGradient
       inkscape:collect="always"
       xlink:href="#linearGradient3977-2"
       id="radialGradient3983-0"
       cx="8"
       cy="2.6010206"
       fx="8"
       fy="2.6010206"
       r="2"
       gradientTransform="matrix(1,0,0,2.0000001,0,-3.2020412)"
       gradientUnits="userSpaceOnUse" />
    <linearGradient
       id="linearGradient3977-2">
      <stop
         style="stop-color:#ff6666;stop-opacity:1;"
         offset="0"
         id="stop3979-0" />
      <stop
         id="stop3987-8"
         offset="0.5"
         style="stop-color:#eb0000;stop-opacity:1;" />
      <stop
         style="stop-color:#a20000;stop-opacity:1;"
         offset="1"
         id="stop3981-9" />
    </linearGradient>
    <radialGradient
       r="2"
       fy="2.6010206"
       fx="8"
       cy="2.6010206"
       cx="8"
       gradientTransform="matrix(1,0,0,2.0000001,-6,-5.2020412)"
       gradientUnits="userSpaceOnUse"
       id="radialGradient4379"
       xlink:href="#linearGradient3977-2"
       inkscape:collect="always" />
    <radialGradient
       inkscape:collect="always"
       xlink:href="#linearGradient3977-20"
       id="radialGradient3983-8"
       cx="8"
       cy="2.6010206"
       fx="8"
       fy="2.6010206"
       r="2"
       gradientTransform="matrix(1,0,0,2.0000001,0,-3.2020412)"
       gradientUnits="userSpaceOnUse" />
    <linearGradient
       id="linearGradient3977-20">
      <stop
         style="stop-color:#ff6666;stop-opacity:1;"
         offset="0"
         id="stop3979-5" />
      <stop
         id="stop3987-5"
         offset="0.5"
         style="stop-color:#eb0000;stop-opacity:1;" />
      <stop
         style="stop-color:#a20000;stop-opacity:1;"
         offset="1"
         id="stop3981-27" />
    </linearGradient>
    <radialGradient
       r="2"
       fy="2.6010206"
       fx="8"
       cy="2.6010206"
       cx="8"
       gradientTransform="matrix(1,0,0,2.0000001,-6,-6.2020412)"
       gradientUnits="userSpaceOnUse"
       id="radialGradient4379-6"
       xlink:href="#linearGradient3977-20"
       inkscape:collect="always" />
    <radialGradient
       inkscape:collect="always"
       xlink:href="#linearGradient3977-0"
       id="radialGradient4035"
       cx="16"
       cy="3.6666667"
       fx="16"
       fy="3.6666667"
       r="5"
       gradientTransform="matrix(1.5714286,0,0,3,-1.1428571,-22.5)"
       gradientUnits="userSpaceOnUse" />
    <linearGradient
       inkscape:collect="always"
       xlink:href="#linearGradient3969"
       id="linearGradient4043"
       x1="25"
       y1="33"
       x2="25.102291"
       y2="33.149048"
       gradientUnits="userSpaceOnUse"
       gradientTransform="matrix(1.5714286,0,0,1.5,-1.1428571,-16)" />
    <radialGradient
       inkscape:collect="always"
       xlink:href="#linearGradient3977-0"
       id="radialGradient4051"
       cx="24"
       cy="22.889093"
       fx="24"
       fy="22.889093"
       r="3.5"
       gradientTransform="matrix(3.5918366,-9.6060105e-8,1.0063441e-7,3.4285714,-48.061222,-61.476889)"
       gradientUnits="userSpaceOnUse" />
    <radialGradient
       inkscape:collect="always"
       xlink:href="#linearGradient3977-0"
       id="radialGradient4059"
       cx="7"
       cy="22.594568"
       fx="7"
       fy="22.594568"
       r="3.5"
       gradientTransform="matrix(3.5918368,-7.0657012e-7,7.4021642e-7,3.4285719,-15.285731,-60.467094)"
       gradientUnits="userSpaceOnUse" />
    <linearGradient
       inkscape:collect="always"
       xlink:href="#linearGradient4286-8"
       id="linearGradient4067"
       x1="11"
       y1="22"
       x2="21"
       y2="22"
       gradientUnits="userSpaceOnUse"
       gradientTransform="matrix(1.5714286,0,0,1.5,-1.1428571,-16)" />
    <linearGradient
       inkscape:collect="always"
       xlink:href="#linearGradient4220"
       id="linearGradient4218"
       x1="16"
       y1="13"
       x2="16"
       y2="1"
       gradientUnits="userSpaceOnUse"
       gradientTransform="matrix(1.5714286,0,0,1.5,-1.1428571,-16)" />
    <radialGradient
       inkscape:collect="always"
       xlink:href="#linearGradient4234"
       id="radialGradient4242"
       cx="16"
       cy="21.4363"
       fx="16"
       fy="21.4363"
       r="5"
       gradientTransform="matrix(1.5714286,0,-6.560924e-8,2.4000003,-1.142856,-35.947124)"
       gradientUnits="userSpaceOnUse" />
    <linearGradient
       inkscape:collect="always"
       xlink:href="#linearGradient4254"
       id="linearGradient4252"
       x1="25"
       y1="29"
       x2="25"
       y2="19"
       gradientUnits="userSpaceOnUse"
       gradientTransform="matrix(1.5714286,0,0,1.5,-1.1428571,-16)" />
    <linearGradient
       inkscape:collect="always"
       xlink:href="#linearGradient4254-8"
       id="linearGradient4252-3"
       x1="25"
       y1="29"
       x2="25"
       y2="19"
       gradientUnits="userSpaceOnUse" />
    <linearGradient
       id="linearGradient4254-8">
      <stop
         id="stop4256-6"
         offset="0"
         style="stop-color:#ffffff;stop-opacity:0.50196081;" />
      <stop
         id="stop4258-9"
         offset="1"
         style="stop-color:#ffffff;stop-opacity:0.1882353;" />
    </linearGradient>
    <linearGradient
       gradientTransform="matrix(-1.5714286,0,0,1.5,49.142857,-16)"
       y2="19"
       x2="25"
       y1="29"
       x1="25"
       gradientUnits="userSpaceOnUse"
       id="linearGradient4275"
       xlink:href="#linearGradient4254-8"
       inkscape:collect="always" />
    <radialGradient
       inkscape:collect="always"
       xlink:href="#linearGradient3977-2"
       id="radialGradient4066"
       cx="9.75"
       cy="33.739502"
       fx="9.75"
       fy="33.739502"
       r="6"
       gradientTransform="matrix(1.3333333,0,-1.3825031e-8,2.0000002,-2.9999993,-35.479009)"
       gradientUnits="userSpaceOnUse" />
    <radialGradient
       inkscape:collect="always"
       xlink:href="#linearGradient3977-20"
       id="radialGradient4076"
       cx="38"
       cy="33.739502"
       fx="38"
       fy="33.739502"
       r="6"
       gradientTransform="matrix(1.3333332,2.8135115e-7,-4.220268e-7,2.0000002,-12.666649,-35.479021)"
       gradientUnits="userSpaceOnUse" />
    <radialGradient
       inkscape:collect="always"
       xlink:href="#linearGradient3977-20"
       id="radialGradient4084"
       cx="24"
       cy="5.5555553"
       fx="24"
       fy="5.5555553"
       r="8"
       gradientTransform="matrix(1.375,0,0,2.375,-8.9999999,-8.194444)"
       gradientUnits="userSpaceOnUse" />
    <linearGradient
       inkscape:collect="always"
       xlink:href="#linearGradient4286-8"
       id="linearGradient4092"
       x1="16"
       y1="32.46875"
       x2="32"
       y2="32.46875"
       gradientUnits="userSpaceOnUse" />
    <linearGradient
       inkscape:collect="always"
       xlink:href="#linearGradient4220"
       id="linearGradient4116"
       x1="24"
       y1="19"
       x2="24"
       y2="1"
       gradientUnits="userSpaceOnUse" />
    <radialGradient
       inkscape:collect="always"
       xlink:href="#linearGradient4234"
       id="radialGradient4132"
       cx="24.022514"
       cy="32.760811"
       fx="24.022514"
       fy="32.760811"
       r="8"
       gradientTransform="matrix(1.25,-9.5217713e-8,1.5707754e-7,1.9999999,-6.028149,-32.521616)"
       gradientUnits="userSpaceOnUse" />
    <linearGradient
       inkscape:collect="always"
       xlink:href="#linearGradient4254"
       id="linearGradient4140"
       x1="10"
       y1="44"
       x2="10"
       y2="28"
       gradientUnits="userSpaceOnUse"
       gradientTransform="translate(0,-1)" />
    <linearGradient
       inkscape:collect="always"
       xlink:href="#linearGradient4254-2"
       id="linearGradient4140-8"
       x1="10"
       y1="44"
       x2="10"
       y2="28"
       gradientUnits="userSpaceOnUse" />
    <linearGradient
       id="linearGradient4254-2">
      <stop
         id="stop4256-62"
         offset="0"
         style="stop-color:#ffffff;stop-opacity:0.50196081;" />
      <stop
         id="stop4258-7"
         offset="1"
         style="stop-color:#ffffff;stop-opacity:0.1882353;" />
    </linearGradient>
    <linearGradient
       gradientTransform="matrix(-1,0,0,1,48,-0.99999959)"
       y2="28"
       x2="10"
       y1="44"
       x1="10"
       gradientUnits="userSpaceOnUse"
       id="linearGradient4157"
       xlink:href="#linearGradient4254-2"
       inkscape:collect="always" />
    <linearGradient
       inkscape:collect="always"
       xlink:href="#linearGradient3969"
       id="linearGradient4192"
       x1="24"
       y1="31"
       x2="24"
       y2="0"
       gradientUnits="userSpaceOnUse" />
    <filter
       inkscape:collect="always"
       id="filter4264"
       x="-0.10700494"
       width="1.2140099"
       y="-0.85603951"
       height="2.712079">
      <feGaussianBlur
         inkscape:collect="always"
         stdDeviation="2.1400988"
         id="feGaussianBlur4266" />
    </filter>
    <filter
       inkscape:collect="always"
       id="filter4284"
       x="-0.09621404"
       width="1.1924281"
       y="-0.76971232"
       height="2.5394246">
      <feGaussianBlur
         inkscape:collect="always"
         stdDeviation="1.9242808"
         id="feGaussianBlur4286" />
    </filter>
  </defs>
  <sodipodi:namedview
     id="base"
     pagecolor="#ffffff"
     bordercolor="#666666"
     borderopacity="1.0"
     inkscape:pageopacity="0.0"
     inkscape:pageshadow="2"
     inkscape:zoom="11.313708"
     inkscape:cx="27.097299"
     inkscape:cy="12.286506"
     inkscape:current-layer="layer4"
     showgrid="true"
     inkscape:grid-bbox="true"
     inkscape:document-units="px"
     width="0px"
     height="0px"
     fit-margin-top="0"
     fit-margin-left="0"
     fit-margin-right="0"
     fit-margin-bottom="0"
     guidetolerance="10000"
     inkscape:snap-path-clip="true"
     inkscape:snap-path-mask="true"
     objecttolerance="10000"
     inkscape:window-width="1024"
     inkscape:window-height="682"
     inkscape:window-x="-4"
     inkscape:window-y="-4"
     inkscape:window-maximized="1"
     showguides="true"
     inkscape:guide-bbox="true">
    <inkscape:grid
       type="xygrid"
       id="grid3131"
       empspacing="5"
       visible="true"
       enabled="true"
       snapvisiblegridlinesonly="true" />
  </sodipodi:namedview>
  <metadata
     id="metadata3128">
    <rdf:RDF>
      <cc:Work
         rdf:about="">
        <dc:format>image/svg+xml</dc:format>
        <dc:type
           rdf:resource="http://purl.org/dc/dcmitype/StillImage" />
        <dc:title>msile 16px icon</dc:title>
      </cc:Work>
    </rdf:RDF>
  </metadata>
  <g
     inkscape:groupmode="layer"
     id="layer4"
     inkscape:label="48"
     style="display:inline">
    <path
       sodipodi:type="arc"
       style="color:#000000;fill:#000000;fill-opacity:1;fill-rule:evenodd;stroke:#000000;stroke-width:0;stroke-linecap:butt;stroke-linejoin:miter;stroke-miterlimit:4;stroke-opacity:1;stroke-dasharray:none;stroke-dashoffset:0;marker:none;visibility:visible;display:inline;overflow:visible;enable-background:accumulate;filter:url(#filter4264)"
       id="path4176-0"
       sodipodi:cx="24"
       sodipodi:cy="45"
       sodipodi:rx="24"
       sodipodi:ry="3"
       d="M 48,45 A 24,3 0 1 1 0,45 24,3 0 1 1 48,45 z"
       transform="matrix(0.95833333,0,0,0.83333314,1.0000001,5.0000093)" />
    <path
       sodipodi:type="arc"
       style="color:#000000;fill:#000000;fill-opacity:1;fill-rule:evenodd;stroke:#000000;stroke-width:0;stroke-linecap:butt;stroke-linejoin:miter;stroke-miterlimit:4;stroke-opacity:1;stroke-dasharray:none;stroke-dashoffset:0;marker:none;visibility:visible;display:inline;overflow:visible;filter:url(#filter4284);enable-background:accumulate"
       id="path4176"
       sodipodi:cx="24"
       sodipodi:cy="45"
       sodipodi:rx="24"
       sodipodi:ry="3"
       d="M 48,45 A 24,3 0 1 1 0,45 24,3 0 1 1 48,45 z"
       transform="matrix(0.875,0,0,1.0000002,3,-2.0000072)" />
    <path
       style="color:#000000;fill:url(#linearGradient4192);fill-opacity:1;fill-rule:nonzero;stroke:none;stroke-width:1px;marker:none;visibility:visible;display:inline;overflow:visible;enable-background:accumulate"
       d="m 24,0 c -3,0 -9,8 -9,16 l 0,1 0,9 C 14,27 2,38 2,42 c 0,1 1,2 2,2 l 11,0 c 0,0 2,3 9,3 7,0 9,-3 9,-3 l 11,0 c 1,0 2,-1 2,-2 C 46,38 34,27 33,26 l 0,-9 0,-1 C 33,8 27,0 24,0 z m 0,1 c 0.309028,0 1.109143,0.3331273 2,1.125 0.890857,0.7918727 1.885766,1.9734758 2.78125,3.40625 C 30.572218,8.3967983 32,12.248047 32,16 l 0,0.59375 C 31.924454,16.701851 31.722378,17.043475 30.65625,17.625 29.436594,18.290267 27.358259,19 24,19 20.641741,19 18.563406,18.290267 17.34375,17.625 16.277622,17.043475 16.07555,16.701851 16,16.59375 L 16,16 C 16,12.248047 17.427782,8.3967983 19.21875,5.53125 20.114234,4.0984758 21.109143,2.9168727 22,2.125 22.890857,1.3331273 23.690972,1 24,1 z M 16,17.9375 C 17.201172,18.816406 19.625,20 24,20 c 4.375,0 6.798828,-1.183594 8,-2.0625 L 32,26 32,43.59375 C 31.924454,43.701851 31.722378,44.043475 30.65625,44.625 29.436594,45.290267 27.358259,46 24,46 20.641741,46 18.563406,45.290267 17.34375,44.625 16.277622,44.043475 16.07555,43.701851 16,43.59375 z M 15,27.375 15,43 4,43 C 3.828125,43 3.5328204,42.90782 3.3125,42.6875 3.0921796,42.46718 3,42.171875 3,42 c 0,-0.507812 0.5890646,-1.918903 1.6875,-3.46875 1.0984354,-1.549847 2.6105439,-3.330637 4.15625,-5 C 11.624609,30.527922 14.012847,28.324024 15,27.375 z m 18,0 c 0.987153,0.949024 3.375391,3.152922 6.15625,6.15625 1.545706,1.669363 3.057815,3.450153 4.15625,5 C 44.410935,40.081097 45,41.492188 45,42 45,42.171875 44.90782,42.46718 44.6875,42.6875 44.46718,42.90782 44.171875,43 44,43 l -11,0 z"
       id="path3910"
       inkscape:connector-curvature="0"
       sodipodi:nodetypes="ssccsscscssccsssssscssscsssscscccsssccccsssssccssssscc" />
    <path
       style="color:#000000;fill:#8a8a8a;fill-opacity:1;fill-rule:nonzero;stroke:none;stroke-width:1px;marker:none;visibility:visible;display:inline;overflow:visible;enable-background:accumulate"
       d="m 117.34375,20.75 0,15.625 11,0 c 0.17188,0 0.46718,-0.09218 0.6875,-0.3125 0.2203,-0.22032 0.3125,-0.515625 0.3125,-0.6875 0,-0.507812 -0.58907,-1.918903 -1.6875,-3.46875 -1.09843,-1.549847 -2.61054,-3.330637 -4.15625,-5 -2.78086,-3.003328 -5.1691,-5.207226 -6.15625,-6.15625 z"
       id="path4017"
       inkscape:connector-curvature="0" />
    <path
       style="color:#000000;fill:url(#radialGradient4076);fill-opacity:1;fill-rule:nonzero;stroke:none;stroke-width:1px;marker:none;visibility:visible;display:inline;overflow:visible;enable-background:accumulate"
       d="m 33,27.375 c 0.98715,0.949024 3.37539,3.152922 6.15625,6.15625 1.54571,1.669363 3.05782,3.450153 4.15625,5 C 44.41093,40.081097 45,41.492188 45,42 45,42.171875 44.9078,42.46718 44.6875,42.6875 44.46718,42.90782 44.17188,43 44,43 l -11,0 0,-15.625 z"
       id="path4015"
       inkscape:connector-curvature="0" />
    <path
       style="color:#000000;fill:#8a8a8a;fill-opacity:1;fill-rule:nonzero;stroke:none;stroke-width:1px;marker:none;visibility:visible;display:inline;overflow:visible;enable-background:accumulate"
       d="m 99.34375,20.75 c -0.987153,0.949024 -3.375391,3.152922 -6.15625,6.15625 -1.545706,1.669363 -3.057815,3.450153 -4.15625,5 -1.098435,1.549847 -1.6875,2.960938 -1.6875,3.46875 0,0.171875 0.09218,0.46718 0.3125,0.6875 0.22032,0.22032 0.515625,0.3125 0.6875,0.3125 l 11,0 0,-15.625 z"
       id="path4013"
       inkscape:connector-curvature="0" />
    <path
       style="color:#000000;fill:url(#radialGradient4066);fill-opacity:1;fill-rule:nonzero;stroke:none;stroke-width:1px;marker:none;visibility:visible;display:inline;overflow:visible;enable-background:accumulate"
       d="M 15,27.375 15,43 4,43 C 3.828125,43 3.53282,42.90782 3.3125,42.6875 3.09218,42.46718 3,42.171875 3,42 c 0,-0.507812 0.589065,-1.918903 1.6875,-3.46875 1.098435,-1.549847 2.610544,-3.330637 4.15625,-5 C 11.624609,30.527922 14.012847,28.324024 15,27.375 z"
       id="path4011"
       inkscape:connector-curvature="0" />
    <path
       style="color:#000000;fill:#8a8a8a;fill-opacity:1;fill-rule:nonzero;stroke:none;stroke-width:1px;marker:none;visibility:visible;display:inline;overflow:visible;enable-background:accumulate"
       d="m 100.34375,10.3125 0,26.65625 c 0.0756,0.108101 0.27762,0.449725 1.34375,1.03125 0.60983,0.332634 1.43943,0.676908 2.53125,0.9375 1.09182,0.260592 2.44587,0.4375 4.125,0.4375 1.67913,0 3.03318,-0.176908 4.125,-0.4375 C 113.56057,38.676908 114.39017,38.332634 115,38 c 1.06613,-0.581525 1.2682,-0.923149 1.34375,-1.03125 l 0,-17.59375 0,-9.0625 c -0.60058,0.439453 -1.50952,0.969238 -2.8125,1.375 -1.30298,0.405762 -3,0.6875 -5.1875,0.6875 -2.1875,0 -3.88452,-0.281738 -5.1875,-0.6875 -1.30298,-0.405762 -2.21191,-0.935547 -2.8125,-1.375 z"
       id="path4009"
       inkscape:connector-curvature="0" />
    <path
       style="color:#000000;fill:url(#linearGradient4092);fill-opacity:1;fill-rule:nonzero;stroke:none;stroke-width:1px;marker:none;visibility:visible;display:inline;overflow:visible;enable-background:accumulate"
       d="m 16,17.9375 c 0.60059,0.439453 1.50952,0.969238 2.8125,1.375 1.30298,0.405762 3,0.6875 5.1875,0.6875 2.1875,0 3.88452,-0.281738 5.1875,-0.6875 1.30298,-0.405762 2.21192,-0.935547 2.8125,-1.375 L 32,27 32,43.59375 C 31.92445,43.701851 31.72238,44.043475 30.65625,44.625 30.04642,44.957634 29.21682,45.301908 28.125,45.5625 27.03318,45.823092 25.67913,46 24,46 22.32087,46 20.96682,45.823092 19.875,45.5625 18.78318,45.301908 17.95358,44.957634 17.34375,44.625 16.27762,44.043475 16.07555,43.701851 16,43.59375 z"
       id="path4007"
       inkscape:connector-curvature="0"
       sodipodi:nodetypes="cssscccssssscc" />
    <path
       style="color:#000000;fill:#8a8a8a;fill-opacity:1;fill-rule:nonzero;stroke:none;stroke-width:1px;marker:none;visibility:visible;display:inline;overflow:visible;enable-background:accumulate"
       d="m 108.34375,-6.625 c -0.30903,0 -1.10914,0.3331273 -2,1.125 -0.89086,0.7918727 -1.88577,1.9734758 -2.78125,3.40625 -0.89548,1.4327742 -1.70043,3.1162502 -2.28125,4.90625 -0.58082,1.7899998 -0.9375,3.686523 -0.9375,5.5625 l 0,0.59375 c 0.0756,0.108101 0.27762,0.449725 1.34375,1.03125 0.60983,0.332634 1.43943,0.676908 2.53125,0.9375 1.09182,0.260592 2.44587,0.4375 4.125,0.4375 1.67913,0 3.03318,-0.176908 4.125,-0.4375 C 113.56057,10.676908 114.39017,10.332634 115,10 c 1.06613,-0.581525 1.2682,-0.923149 1.34375,-1.03125 l 0,-0.59375 c 0,-1.875977 -0.35668,-3.7725002 -0.9375,-5.5625 -0.58082,-1.7899998 -1.38577,-3.4734758 -2.28125,-4.90625 -0.89548,-1.4327742 -1.89039,-2.6143773 -2.78125,-3.40625 -0.89086,-0.7918727 -1.69097,-1.125 -2,-1.125 z"
       id="path4005"
       inkscape:connector-curvature="0" />
    <path
       style="color:#000000;fill:url(#radialGradient4084);fill-opacity:1;fill-rule:nonzero;stroke:none;stroke-width:1px;marker:none;visibility:visible;display:inline;overflow:visible;enable-background:accumulate"
       d="m 24,1 c 0.30903,0 1.10914,0.3331273 2,1.125 0.89086,0.7918727 1.88577,1.9734758 2.78125,3.40625 0.89548,1.4327742 1.70043,3.1162502 2.28125,4.90625 C 31.64332,12.2275 32,14.124023 32,16 l 0,0.59375 C 31.92445,16.701851 31.72238,17.043475 30.65625,17.625 30.04642,17.957634 29.21682,18.301908 28.125,18.5625 27.03318,18.823092 25.67913,19 24,19 22.32087,19 20.96682,18.823092 19.875,18.5625 18.78318,18.301908 17.95358,17.957634 17.34375,17.625 16.27762,17.043475 16.07555,16.701851 16,16.59375 L 16,16 c 0,-1.875977 0.35668,-3.7725 0.9375,-5.5625 C 17.51832,8.6475002 18.32327,6.9640242 19.21875,5.53125 20.11423,4.0984758 21.10914,2.9168727 22,2.125 22.89086,1.3331273 23.69097,1 24,1 z"
       id="path4003"
       inkscape:connector-curvature="0" />
    <path
       style="color:#000000;fill:url(#linearGradient4140);fill-opacity:1;fill-rule:nonzero;stroke:none;stroke-width:1px;marker:none;visibility:visible;display:inline;overflow:visible;enable-background:accumulate"
       d="m 15,27.375 c -0.987153,0.949024 -3.375391,3.152922 -6.15625,6.15625 -1.545706,1.669363 -3.057815,3.450153 -4.15625,5 C 3.589065,40.081097 3,41.492188 3,42 3,42.171875 3.09218,42.46718 3.3125,42.6875 3.53282,42.90782 3.828125,43 4,43 l 11,0 0,-15.625 z M 14,29.78125 14,42 4,42 C 4,42.132763 4.08822,41.641473 4.34375,41.09375 4.599276,40.546027 4.984808,39.851914 5.5,39.125 6.557045,37.633553 8.036774,35.866535 9.5625,34.21875 11.556756,32.064953 12.783994,30.9419 14,29.78125 z"
       id="path4013-4"
       inkscape:connector-curvature="0" />
    <path
       style="color:#000000;fill:url(#radialGradient4132);fill-opacity:1;fill-rule:nonzero;stroke:none;stroke-width:1px;marker:none;visibility:visible;display:inline;overflow:visible;enable-background:accumulate"
       d="m 16,17.9375 0,25.65625 c 0.0756,0.108101 0.27762,0.449725 1.34375,1.03125 0.60983,0.332634 1.43943,0.676908 2.53125,0.9375 C 20.96682,45.823092 22.32087,46 24,46 c 1.67913,0 3.03318,-0.176908 4.125,-0.4375 1.09182,-0.260592 1.92142,-0.604866 2.53125,-0.9375 C 31.72238,44.043475 31.92445,43.701851 32,43.59375 L 32,27 32,17.9375 c -0.60058,0.439453 -1.50952,0.969238 -2.8125,1.375 C 27.88452,19.718262 26.1875,20 24,20 21.8125,20 20.11548,19.718262 18.8125,19.3125 17.50952,18.906738 16.60059,18.376953 16,17.9375 z m 1,1.59375 c 0.505347,0.255656 0.813586,0.536243 1.5,0.75 C 19.91289,20.72124 21.72661,21 24,21 c 2.27339,0 4.08711,-0.27876 5.5,-0.71875 0.68641,-0.213757 0.99465,-0.494344 1.5,-0.75 L 31,27 31,43.21875 c -0.12596,0.108977 -0.3491,0.278484 -0.8125,0.53125 -0.52975,0.288953 -1.27165,0.602781 -2.28125,0.84375 C 26.89665,44.834718 25.60887,45 24,45 22.39113,45 21.10335,44.834718 20.09375,44.59375 19.08415,44.352781 18.342248,44.038953 17.8125,43.75 17.349091,43.497231 17.125967,43.327726 17,43.21875 z"
       id="path4009-5"
       inkscape:connector-curvature="0"
       sodipodi:nodetypes="ccssssscccsssccssscccssssscc" />
    <path
       style="color:#000000;fill:url(#linearGradient4116);fill-opacity:1;fill-rule:nonzero;stroke:none;stroke-width:1px;marker:none;visibility:visible;display:inline;overflow:visible;enable-background:accumulate"
       d="M 24,1 C 23.69097,1 22.89086,1.333127 22,2.125 21.10914,2.916873 20.11423,4.098476 19.21875,5.53125 18.32327,6.964024 17.51832,8.6475 16.9375,10.4375 16.35668,12.2275 16,14.124023 16,16 l 0,0.59375 c 0.0756,0.108101 0.27762,0.449725 1.34375,1.03125 0.60983,0.332634 1.43943,0.676908 2.53125,0.9375 C 20.96682,18.823092 22.32087,19 24,19 c 1.67913,0 3.03318,-0.176908 4.125,-0.4375 1.09182,-0.260592 1.92142,-0.604866 2.53125,-0.9375 C 31.72238,17.043475 31.92445,16.701851 32,16.59375 L 32,16 C 32,14.124023 31.64332,12.2275 31.0625,10.4375 30.48168,8.6475 29.67673,6.964024 28.78125,5.53125 27.88577,4.098476 26.89086,2.916873 26,2.125 25.10914,1.333127 24.30903,1 24,1 z m 0,1 c 0.07812,0 0.15625,0.046875 0.3125,0.125 0.26855,0.139843 0.64507,0.406727 1.03125,0.75 0.7977,0.709066 1.74388,1.827704 2.59375,3.1875 0.8515,1.362413 1.60242,2.98067 2.15625,4.6875 C 30.64758,12.456827 31,14.251167 31,16 l 0,0.21875 c -0.12577,0.108811 -0.34923,0.278555 -0.8125,0.53125 -0.52953,0.288833 -1.27187,0.602835 -2.28125,0.84375 C 26.89687,17.834664 25.60868,18 24,18 22.39132,18 21.10313,17.834664 20.09375,17.59375 19.08437,17.352835 18.342028,17.038833 17.8125,16.75 17.34922,16.497302 17.125776,16.327561 17,16.21875 L 17,16 c 0,-1.748833 0.352418,-3.543173 0.90625,-5.25 C 18.460083,9.04317 19.211,7.424913 20.0625,6.0625 20.91237,4.702704 21.85855,3.584066 22.65625,2.875 23.04243,2.531727 23.41895,2.264843 23.6875,2.125 23.84375,2.046875 23.92188,2 24,2 z"
       id="path4005-7"
       inkscape:connector-curvature="0" />
    <path
       style="color:#000000;fill:url(#linearGradient4157);fill-opacity:1;fill-rule:nonzero;stroke:none;stroke-width:1px;marker:none;visibility:visible;display:inline;overflow:visible;enable-background:accumulate"
       d="m 33,27.375 c 0.987153,0.949024 3.375391,3.152922 6.15625,6.15625 1.545706,1.669363 3.057815,3.450153 4.15625,5 C 44.410935,40.081097 45,41.492188 45,42 45,42.171875 44.90782,42.46718 44.6875,42.6875 44.46718,42.90782 44.171875,43 44,43 L 33,43 33,27.375 z M 34,29.78125 34,42 44,42 C 44,42.132763 43.91178,41.641473 43.65625,41.09375 43.400724,40.546027 43.015192,39.851914 42.5,39.125 41.442955,37.633553 39.963226,35.866535 38.4375,34.21875 36.443244,32.064953 35.216006,30.9419 34,29.78125 z"
       id="path4013-4-5"
       inkscape:connector-curvature="0" />
  </g>
</svg>
